<svg width="800" height="425" viewBox="0 0 961 397" fill="none"
  xmlns="http://www.w3.org/2000/svg">

  <path fill="url(#paint0_linear_3_1553)" d="M89.24515,198.50449c10.72894-13.62988,25.31925-26.70515,36.00102-34.90093,8.86177-6.53653,22.93148-21.75594,29.89997-15.69867,2.89964,2.09878,1.79954,7.69876-2.10036,10.19876-3.80005,2.40002-4,3.09998-1.1001,3.79999,8.47014,1.32872,18.28208-25.51497,.37758-22.74394-.18081,.02798-.36561,.04184-.54856,.04141-26.22984-.06129-101.78809,79.72423-101.03011,100.40138-.60724,15.95473,14.2492,9.89002,25.00092,4.70195,21.60019-11.20079,42.90012-21.80077,50.50022-25.10075,26.06773-10.59067,58.49339-26.55679,84.42081-32.86168,.28887-.07025,.57909-.12367,.87632-.12923,3.87148-.07245,21.43695-6.67474,22.80241-4.1101,1.6004,2.20099,3.80035,1.80096,7.40045-1.19904,.22083-.49323,1.19561-1.07325,2.62843-1.68396,4.33611-1.84818,7.6279,4.17096,3.76115,6.8665-4.75533,3.31496-9.55719,6.58039-12.88958,8.71749-3.80005,2.5-7.6001,5.20001-8.40002,6.09998-1.79993,2.20001-.59998,6.70001,1.70007,6.70001,.8999,0,5.59985-3.39996,10.5-7.39996,10.09985-8.50006,30.59985-23.30005,35.69995-25.80005,5.02442-3.13449,43.84007-6.02943,33.20057,7.8995-6.93606,9.20087-13.09754,16.91403-26.3433,20.75515-.10284,.02982-.20574,.06442-.30542,.10353-79.05105,31.01145-168.02843,71.4428-239.37152,131.87452-.05376,.04554-.10487,.09126-.15608,.13966-18.45873,17.44408-54.9807,44.39496-36.86053,64.35392,.61688,.67948,1.44117,1.1572,2.35035,1.28216,36.48813,5.01485,104.03074-47.78687,141.27741-70.63954,.07335-.045,.14215-.09047,.21225-.14039,11.42046-8.13164,26.84399-19.6791,37.95098-28.01957,.2882-.21642,.61402-.35214,.94669-.49083,1.76698-.73663,6.38708-6.02473,7.59862-5.91809,1.22675,.23757,6.66327-6.05314,7.80001-6.00004,.50002,.00003,2.89992-1.69998,5.29995-3.69998,17.49413-13.79093,27.2756-23.68616,42.99936-36.50081,10.20072-7.49919,18.10062-14.29918,32.80057-28.19914,.13263-.12276,.26414-.24444,.39455-.36506,3.65994-3.38524,8.91357,1.75358,5.61996,5.49619-4.73704,5.38283-9.39896,10.78862-13.41392,15.76926-19.07783,21.59342-20.02852,25.74865-35.00016,42.99984-17.80038,19.89976-24.90036,40.89976-15.70028,46.49973,7.19995,4.40002,35.69995,.40002,35.69995-5,3.0784-5.01004-28.13747-.17029-30.20028-2.2006-11.69946-10.94888,65.90186-93.82012,89.95482-120.71473,.23186-.25926,.48377-.47853,.776-.66714,21.89191-14.12981,83.80444-26.98817,106.96945-32.41753,20.81879-4.00009,61.53049-12.44384,88.01946-13.36203,3.20417-.11107,5.19251,3.44109,3.41469,6.10913-21.63665,32.47093-52.10379,75.01914-64.23343,111.25336-16.199,46.21152,1.1533,74.20515,48.79914,31.99825,25.74001-22.2517,66.99781-68.81914,81.99962-95.39918,13.42598-25.93894,23.56694-36.53281,26.98957-48.40633,.07526-.26108,.17702-.51834,.30585-.75757,1.41872-2.63439,1.7266-2.60604,9.0051-1.93563,9.29999,.79999,35.81035,6.14467,39.20001,9,2.83168,2.38531,16.73456,4.29995,31.00012,10.69973,10.52714,4.72266,19.94562,9.02879,32.87241,21.54388,.34165,.33077,.76775,.53775,1.10996,.86793,2.56284,2.47279,7.17999-3.57407,5.11749-7.51151-1.39996-2.60004-23.96844-17.66043-35.59998-23.70001-17.80505-9.24512-62.22267-20.9935-75.10089-21.9998-1.99914-.5002-1.99914-.70021,1.30091-10.10023,15.5587-43.62553,9.11884-103.00513-36.20045-125.49977-92.7111-47.80712-240.34477,42.73919-305.89869,107.19922-5.30082,4.90058-23.20097,24.30055-41.70097,45.10053q-6.59985,7.40002-21.5,11.10004c-21.09985,5.39996-27.59985,7.20001-36.79993,10.59998-24.32222,8.2032-48.53044,18.26116-71.84825,29.77702-.16731,.08263-.3429,.14538-.52067,.20212-6.27638,2.00338-51.11743,26.82713-51.23152,23.62189,.50499-4.03978,21.11109-34.54379,25.80174-36.43522m.37031-.18052c1.42405-.99778,3.7909-3.57939,5.32784-5.88443m-5.69814,6.06495c.13116-.05289,.25449-.09937,.37031-.18052m181.22831,20.41473c-21.16218,17.52484-32.01696,28.5392-51.45629,41.56952-.02913,.01952-.0584,.04058-.08616,.062-44.29989,34.18959-78.74499,61.24139-122.35744,88.76853-19.00437,11.09012-59.83695,38.71239-80.64616,36.28961-.98538-.11473-1.67122-1.06729-1.44673-2.03359,4.24211-18.25949,41.92269-48.09368,64.0911-65.457,51.79845-36.40096,106.97146-64.97037,162.41074-90.65894,.06007-.02783,.11552-.04966,.17849-.07008,3.52632-1.14348,17.84548-7.27763,27.70708-11.42268,1.78325-.74954,3.21657,1.60875,1.73112,2.84778-.04184,.0349-.08376,.06985-.12576,.10485Zm229.6001-76.10004c-8.14713,.57857-26.18812,4.10204-32.50013,4.80042-.49987-.00037,3.30018-1.60041,8.50013-3.50037,26.29999-9.60004,67.59998-21.90002,68.5-20.40002,.54132,.81204-5.02262,12.61359-7.21732,15.57425-.29725,.40099-.75219,.64129-1.25042,.6717-4.41122,.26925-12.10617,.15127-36.03227,2.85402Zm96.32307,33.56145c-.01548,.02589-.02997,.05212-.04368,.07899-19.41233,38.05408-46.62991,68.98025-77.17897,100.16006-16.75263,15.75891-36.15346,35.50037-49.39803,34.8657-.50841-.02436-.98033-.30073-1.26144-.72505-18.25194-27.54993,38.46658-107.63008,64.25664-146.94071q9.6024-14.30042,42.40239-13.90039c14.47697,.16087,27.07807,.45107,31.61223,.76662,1.10314,.07677,1.83646,1.16388,1.48873,2.21359-1.4175,4.279-6.55026,14.57043-11.87787,23.4812Zm-306.92316-20.16142c-7.6658,4.52608-10.63447,3.04243-18.50005,4.39986-14.39986,2.50017-13.99995,3.20012-3.99995-8.19985,24.85436-28.61164,73.76112-70.94284,102.7004-87.89958,54.02648-32.95264,82.3924-46.3508,139.39993-55.79994,31.91833-5.10026,62.54238-3.40737,88.59924,14.30132,35.71201,24.37217,32.89996,82.05111,15.77936,116.83547-.29091,.59105-.90178,.95713-1.56028,.93843-8.5251-.24211-17.48892-1.56438-36.51825-1.37485-37.25731-1.44425-25.53812,4.54322-23.3999-12.70038q.5996-5.50047,9.0996-7.30046c6.29999-1.40002,13.5-1.90002,27.79999-2,17.90002-.20001,19.5-.29999,20.79999-2.10004,1.60004-2.29999,1-5.5-1.5-7.39996-2.39996-1.90002-26-.60004-44.5,2.39996-14.29999,2.40002-15.20001,2.40002-21.5,.90002-6-1.5-7.39996-1.5-15.09998-.09998-12.40002,2.19995-24.20001,5.69995-46.60004,13.39996-32.39996,11.29999-31.39996,11-31.39996,9.10004,0-3.30005,16.8999-24.70001,36.5-46.40002,20.31372-22.49374,25.30963-31.82988,21.11764-40.26808-.0761-.15318-.17461-.30067-.28945-.42743-17.17179-18.95415-98.57055,62.16781-125.72904,85.59208-18.19925,17.40342-20.59915,19.20341-30.7991,23.00346-7.57787,2.89148-7.9976,2.50231-4.92726-3.94311,.01738-.03648,.03825-.07595,.05855-.1109,5.07106-8.73149,1.10268-10.96778-4.37787-13.20303-.23108-.09425-.47797-.14226-.72696-.12553-7.99621,.53728-37.63491,11.39791-50.4266,18.48255Zm155.70007-34.70001c-1.79993,2.60004-2.59998,3.10004-3.70007,2.10004-3.79993-3.10004-23.69995,1.59998-44.3999,10.59998-8.28125,3.05934-15.00502,8.15595-5.05876-1.04533,.03808-.03523,.07173-.06954,.10606-.10842,6.68587-7.57236,115.068-100.3712,106.40746-77.1861-.03336,.0893-.07366,.17796-.11956,.26151-7.71614,14.0465-44.59647,51.36097-53.23523,65.37833Zm-106.40002,52c-7.8223,8.00061-11.93499,10.44915-17.95321,12.03985-1.39653,.36912-2.60353-1.06382-1.96322-2.35863,2.8786-5.82098,5.22065-14.04963,.51528-17.78127-6.54871-8.0778-28.99171-5.29594-17.74849-8.88344,.03138-.01001,.06491-.02186,.09555-.03394,18.48304-7.29153,35.85505-12.68158,36.95411-11.48257,.20007,.20001-.5,2.5-1.59998,5-3.23074,6.68335-1.30212,16.7682,6.89968,15.20054q3.60032-.60051-5.19973,8.29946Zm13.44104-1.64498c1.54914-1.54833,3.40248-3.36892,5.41358-5.31117,.02992-.02889,.05813-.05881,.08517-.09041,15.1179-17.66258,69.56195-36.27627,79.25979-35.7543,7.24953-1.51745-1.53811,13.04608,6.70115,19.50079q2.39932,2.10006-8.40073,3.80007c-20.35944,2.78078-58.02751,13.15756-81.35474,20.64815-1.68325,.54051-2.95465-1.54336-1.70422-2.79313Z"/>


  <defs>

    <linearGradient id="paint0_linear_3_1553" x1="480.205" y1="0" x2="480.205" y2="396.215" gradientUnits="userSpaceOnUse">
      <stop stop-color="#878787"></stop>
      <stop offset="1" stop-color="#7C7C7C"></stop>
    </linearGradient>

  </defs>
</svg>