<?xml version="1.0" encoding="UTF-8"?><svg id="Layer_1" xmlns="http://www.w3.org/2000/svg" xmlns:xlink="http://www.w3.org/1999/xlink" viewBox="0 0 84 84"><defs><radialGradient id="radial-gradient" cx="-1183.15368" cy="215.66322" fx="-1183.15368" fy="215.66322" r="1" gradientTransform="translate(-23249.62757 127780.59759) rotate(90) scale(108 -108)" gradientUnits="userSpaceOnUse"><stop offset="0" stop-color="#000"/><stop offset="1" stop-color="#000"/></radialGradient><linearGradient id="linear-gradient" x1="-548.97248" y1="-418.1567" x2="-530.59748" y2="-452.2817" gradientTransform="translate(564 -426.24845) scale(1 -1)" gradientUnits="userSpaceOnUse"><stop offset="0" stop-color="#000"/><stop offset="1" stop-color="#000" stop-opacity="0"/></linearGradient></defs><path d="m42,0h0c23.19596,0,42,18.80404,42,42h0c0,23.19596-18.80404,42-42,42h0C18.80404,84,0,65.19596,0,42h0C0,18.80404,18.80404,0,42,0Z" fill="#fff"/><rect id="_Transparent_Rectangle" x="22" y="22" width="40" height="40" fill="none"/><path id="scaling--containers" d="m42,61.20031c-.07375,0-.14625-.01875-.21375-.05375l-16.25-8.75c-.145-.07875-.23625-.23-.23625-.39625v-20c0-.165.09125-.3175.23625-.39625l16.25-8.75c.13375-.0725.2925-.0725.4275,0l16.25,8.75c.145.07875.23625.23125.23625.39625v20c0,.16625-.09125.3175-.23625.39625l-16.25,8.75c-.0675.03625-.14.05375-.21375.05375Zm-7.05-4.75625l7.05,3.795,7.05-3.795v-9.96625l-6.84875,3.425c-.1275.06375-.27625.06375-.4025,0l-6.84875-3.425v9.96625Zm7.05-14.89375c.06875,0,.1375.01625.20125.0475l7.5,3.75c.1525.0775.24875.2325.24875.4025v10.20875l2.84875-1.53625v-14.6575l-10.79875-6-10.8,6v14.65875l2.85,1.53625v-10.21c0-.17125.09625-.32625.24875-.4025l7.5-3.75c.06375-.03125.1325-.0475.20125-.0475Zm0-8.75c.075,0,.15125.01875.21875.05625l11.25,6.25c.1425.08.2325.23.2325.39375v14.43875l4.09875-2.2075v-19.4625l-15.8-8.5075-15.8,8.5075v19.4625l4.1,2.2075v-14.43875c0-.16375.08875-.31375.23125-.39375l11.25-6.25c.0675-.0375.14375-.05625.21875-.05625Zm-6.49375,12.95l6.49375,3.2475,6.49375-3.2475-6.49375-3.2475-6.49375,3.2475Z"/><path d="m42,.5h0c22.91982,0,41.5,18.58018,41.5,41.5h0c0,22.91982-18.58018,41.5-41.5,41.5h0C19.08018,83.5.5,64.91982.5,42h0C.5,19.08018,19.08018.5,42,.5Z" fill="none" stroke="url(#radial-gradient)" stroke-opacity=".15"/><path d="m42,.5h0c22.91982,0,41.5,18.58018,41.5,41.5h0c0,22.91982-18.58018,41.5-41.5,41.5h0C19.08018,83.5.5,64.91982.5,42h0C.5,19.08018,19.08018.5,42,.5Z" fill="none" stroke="url(#linear-gradient)" stroke-opacity=".5"/></svg>