<svg viewBox="0 0 104 104" id="Layer_1" xmlns:xlink="http://www.w3.org/1999/xlink" xmlns="http://www.w3.org/2000/svg"><defs><clipPath id="clippath"><rect width="104" height="104" fill="none"/></clipPath><linearGradient id="linear-gradient" x1="-1639.99981" y1="-1059.68414" x2="-1639.99981" y2="-1179.68414" gradientTransform="translate(1692 -1067.68421) scale(1 -1)" gradientUnits="userSpaceOnUse"><stop offset="0" stop-color="gray"/><stop offset="1" stop-color="gray"/></linearGradient><radialGradient id="radial-gradient" cx="-1908.82598" cy="338.19911" fx="-1908.82598" fy="338.19911" r="1" gradientTransform="translate(-52127.38655 294497.11668) rotate(90) scale(154.286 -154.286)" gradientUnits="userSpaceOnUse"><stop offset="0" stop-color="#fff"/><stop offset="1" stop-color="#fff"/></radialGradient><linearGradient id="linear-gradient-2" x1="-550.53201" y1="-167.51839" x2="-524.28201" y2="-216.26839" gradientTransform="translate(564 -187.07807) scale(1 -1)" gradientUnits="userSpaceOnUse"><stop offset="0" stop-color="#fff"/><stop offset="1" stop-color="#fff" stop-opacity="0"/></linearGradient></defs><g clip-path="url(#clippath)"><path d="m26.0192,7c16.077-9.28203,35.8846-9.28203,51.9616,0,16.0769,9.282,25.9812,26.4359,25.9812,45s-9.9043,35.718-25.9812,45c-16.077,9.282-35.8846,9.282-51.9616,0C9.94229,87.718.03847,70.5641.03847,52S9.94229,16.282,26.0192,7Z"/><path d="m26.01915,6.99998c16.077-9.28203,35.8846-9.28203,51.96161,0,16.0769,9.282,25.9812,26.4359,25.9812,45s-9.9043,35.718-25.9812,45c-16.077,9.282-35.8846,9.282-51.9616,0C9.94224,87.71798.03842,70.56407.03842,51.99998S9.94224,16.28198,26.01915,6.99998Z" fill="url(#linear-gradient)" fill-opacity=".15"/><path d="m26.0192,7c16.077-9.28203,35.8846-9.28203,51.9616,0,16.0769,9.282,25.9812,26.4359,25.9812,45s-9.9043,35.718-25.9812,45c-16.077,9.282-35.8846,9.282-51.9616,0C9.94229,87.718.03847,70.5641.03847,52S9.94229,16.282,26.0192,7Z"/><path d="m.53847,52C.53847,33.6146,10.347,16.6257,26.2692,7.43301c15.9223-9.19271,35.5393-9.19271,51.4616,0,15.9222,9.19269,25.7312,26.18159,25.7312,44.56699s-9.809,35.3743-25.7312,44.567c-15.9223,9.193-35.5393,9.193-51.4616,0C10.347,87.3743.53847,70.3854.53847,52Z" fill="none" stroke="url(#radial-gradient)" stroke-opacity=".15"/><path d="m.53847,52C.53847,33.6146,10.347,16.6257,26.2692,7.43301c15.9223-9.19271,35.5393-9.19271,51.4616,0,15.9222,9.19269,25.7312,26.18159,25.7312,44.56699s-9.809,35.3743-25.7312,44.567c-15.9223,9.193-35.5393,9.193-51.4616,0C10.347,87.3743.53847,70.3854.53847,52Z" fill="none" stroke="url(#linear-gradient-2)" stroke-opacity=".5"/><path id="scaling--containers" d="m52,71.20031c-.07375,0-.14625-.01875-.21375-.05375l-16.25-8.75c-.145-.07875-.23625-.23-.23625-.39625v-20c0-.165.09125-.3175.23625-.39625l16.25-8.75c.13375-.0725.2925-.0725.4275,0l16.25,8.75c.145.07875.23625.23125.23625.39625v20c0,.16625-.09125.3175-.23625.39625l-16.25,8.75c-.0675.03625-.14.05375-.21375.05375Zm-7.05-4.75625l7.05,3.795,7.05-3.795v-9.96625l-6.84875,3.425c-.1275.06375-.27625.06375-.4025,0l-6.84875-3.425s0,9.96625,0,9.96625Zm7.05-14.89375c.06875,0,.1375.01625.20125.0475l7.5,3.75c.1525.0775.24875.2325.24875.4025v10.20875l2.84875-1.53625v-14.6575l-10.79875-6-10.8,6v14.65875l2.85,1.53625v-10.21c0-.17125.09625-.32625.24875-.4025l7.5-3.75c.06375-.03125.1325-.0475.20125-.0475Zm0-8.75c.075,0,.15125.01875.21875.05625l11.25,6.25c.1425.08.2325.23.2325.39375v14.43875l4.09875-2.2075v-19.4625l-15.8-8.5075-15.8,8.5075v19.4625l4.1,2.2075v-14.43875c0-.16375.08875-.31375.23125-.39375l11.25-6.25c.0675-.0375.14375-.05625.21875-.05625Zm-6.49375,12.95l6.49375,3.2475,6.49375-3.2475-6.49375-3.2475-6.49375,3.2475Z" fill="#fcfcfc"/></g></svg>