<svg xmlns="http://www.w3.org/2000/svg" width="128" height="32" viewBox="0 0 128 32" fill="none" class="w-36 pr-5">
<path d="M53.615 16.0017C53.615 16.5996 53.5531 17.1728 53.4293 17.7214C53.3054 18.2638 53.1259 18.7723 52.8906 19.2469C52.6615 19.7215 52.3798 20.1592 52.0455 20.5598C51.7111 20.9543 51.3304 21.3025 50.9032 21.6046L54.3115 25.3028H52.2498C51.9526 25.3028 51.6833 25.2628 51.4418 25.1826C51.2065 25.1025 50.9898 24.9546 50.7917 24.7388L48.8228 22.5754C48.5071 22.6616 48.182 22.7264 47.8477 22.7695C47.5195 22.8127 47.1759 22.8342 46.8168 22.8342C45.8014 22.8342 44.8727 22.6647 44.0306 22.3257C43.1948 21.9806 42.4766 21.5029 41.876 20.8926C41.2816 20.2824 40.8204 19.5613 40.4922 18.7292C40.1641 17.8909 40 16.9817 40 16.0017C40 15.0217 40.1641 14.1156 40.4922 13.2835C40.8204 12.4452 41.2816 11.721 41.876 11.1107C42.4766 10.5005 43.1948 10.0259 44.0306 9.68692C44.8727 9.34175 45.8014 9.16916 46.8168 9.16916C47.8322 9.16916 48.7578 9.34175 49.5937 9.68692C50.4295 10.0321 51.1446 10.5098 51.739 11.12C52.3334 11.724 52.7946 12.4452 53.1228 13.2835C53.4509 14.1156 53.615 15.0217 53.615 16.0017ZM51.0517 16.0017C51.0517 15.2682 50.9527 14.6118 50.7546 14.0324C50.5626 13.4468 50.284 12.9506 49.9187 12.5438C49.5534 12.137 49.1076 11.8257 48.5814 11.61C48.0613 11.3943 47.4731 11.2864 46.8168 11.2864C46.1605 11.2864 45.5692 11.3943 45.0429 11.61C44.5167 11.8257 44.0678 12.137 43.6963 12.5438C43.331 12.9506 43.0493 13.4468 42.8512 14.0324C42.653 14.6118 42.554 15.2682 42.554 16.0017C42.554 16.7352 42.653 17.3947 42.8512 17.9803C43.0493 18.5597 43.331 19.0528 43.6963 19.4596C44.0678 19.8602 44.5167 20.1684 45.0429 20.3841C45.5692 20.5999 46.1605 20.7077 46.8168 20.7077C47.4731 20.7077 48.0613 20.5999 48.5814 20.3841C49.1076 20.1684 49.5534 19.8602 49.9187 19.4596C50.284 19.0528 50.5626 18.5597 50.7546 17.9803C50.9527 17.3947 51.0517 16.7352 51.0517 16.0017Z" fill="#10151B"/>
<path d="M56.8155 13.2003V19.2284C56.8155 19.8078 56.9486 20.2578 57.2148 20.5783C57.4872 20.8926 57.8928 21.0498 58.4314 21.0498C58.8277 21.0498 59.1992 20.9635 59.5459 20.7909C59.8926 20.6122 60.2208 20.3687 60.5303 20.0605V13.2003H62.8243V22.6863H61.4219C61.1247 22.6863 60.9297 22.5476 60.8368 22.2702L60.6789 21.5121C60.4808 21.7093 60.2765 21.8912 60.066 22.0576C59.8555 22.2179 59.6295 22.3565 59.388 22.4737C59.1527 22.5846 58.8958 22.6709 58.6172 22.7325C58.3447 22.8003 58.0507 22.8342 57.7349 22.8342C57.2148 22.8342 56.7535 22.7479 56.3511 22.5754C55.9548 22.3966 55.6205 22.147 55.3481 21.8265C55.0757 21.5059 54.8682 21.1269 54.7258 20.6892C54.5896 20.2455 54.5215 19.7585 54.5215 19.2284V13.2003H56.8155Z" fill="#10151B"/>
<path d="M66.973 13.2003V22.6863H64.6791V13.2003H66.973ZM67.3166 10.4358C67.3166 10.6331 67.2764 10.818 67.1959 10.9906C67.1154 11.1631 67.0071 11.3142 66.8709 11.4436C66.7408 11.573 66.5861 11.6778 66.4065 11.7579C66.227 11.8319 66.035 11.8689 65.8307 11.8689C65.6326 11.8689 65.4437 11.8319 65.2642 11.7579C65.0908 11.6778 64.9391 11.573 64.8091 11.4436C64.6791 11.3142 64.5738 11.1631 64.4933 10.9906C64.419 10.818 64.3819 10.6331 64.3819 10.4358C64.3819 10.2324 64.419 10.0413 64.4933 9.86258C64.5738 9.68384 64.6791 9.52974 64.8091 9.4003C64.9391 9.27086 65.0908 9.16916 65.2642 9.0952C65.4437 9.01507 65.6326 8.975 65.8307 8.975C66.035 8.975 66.227 9.01507 66.4065 9.0952C66.5861 9.16916 66.7408 9.27086 66.8709 9.4003C67.0071 9.52974 67.1154 9.68384 67.1959 9.86258C67.2764 10.0413 67.3166 10.2324 67.3166 10.4358Z" fill="#10151B"/>
<path d="M75.5262 15.2066C75.4581 15.2929 75.39 15.3607 75.3219 15.41C75.26 15.4593 75.1671 15.4839 75.0433 15.4839C74.9257 15.4839 74.8111 15.45 74.6997 15.3822C74.5882 15.3083 74.4551 15.2281 74.3003 15.1419C74.1455 15.0494 73.9598 14.9693 73.7431 14.9015C73.5326 14.8275 73.2694 14.7905 72.9537 14.7905C72.5512 14.7905 72.1983 14.8645 71.8949 15.0124C71.5916 15.1542 71.3377 15.3607 71.1334 15.6319C70.9353 15.9031 70.7867 16.2328 70.6876 16.6212C70.5885 17.0033 70.539 17.4379 70.539 17.9248C70.539 18.4302 70.5916 18.8802 70.6969 19.2747C70.8083 19.6691 70.9662 20.002 71.1705 20.2732C71.3749 20.5382 71.6225 20.7416 71.9135 20.8834C72.2045 21.019 72.5327 21.0868 72.898 21.0868C73.2632 21.0868 73.5573 21.0437 73.7802 20.9574C74.0093 20.8649 74.2013 20.7663 74.356 20.6615C74.5108 20.5506 74.6439 20.4519 74.7554 20.3656C74.873 20.2732 75.003 20.227 75.1455 20.227C75.3312 20.227 75.4705 20.2978 75.5634 20.4396L76.2228 21.2717C75.9689 21.5676 75.6934 21.8172 75.3962 22.0206C75.099 22.2179 74.7894 22.3781 74.4675 22.5014C74.1517 22.6185 73.8236 22.7017 73.483 22.751C73.1425 22.8003 72.8051 22.825 72.4707 22.825C71.8826 22.825 71.3284 22.7171 70.8083 22.5014C70.2883 22.2795 69.8332 21.959 69.4431 21.5398C69.0593 21.1207 68.7528 20.6091 68.5237 20.0051C68.3008 19.3949 68.1894 18.7014 68.1894 17.9248C68.1894 17.2283 68.2884 16.5842 68.4865 15.9925C68.6909 15.3946 68.9881 14.8799 69.3781 14.4484C69.7682 14.0108 70.2511 13.6687 70.8269 13.4222C71.4027 13.1756 72.0652 13.0523 72.8144 13.0523C73.5264 13.0523 74.1486 13.1664 74.6811 13.3944C75.2198 13.6225 75.7027 13.9492 76.1299 14.3745L75.5262 15.2066Z" fill="#10151B"/>
<path d="M79.2608 8.94727V16.8153H79.688C79.8428 16.8153 79.9636 16.7937 80.0502 16.7506C80.1369 16.7074 80.2298 16.6273 80.3289 16.5102L82.6971 13.5978C82.8023 13.4746 82.9138 13.379 83.0314 13.3112C83.1491 13.2372 83.3039 13.2003 83.4958 13.2003H85.5947L82.6321 16.7229C82.5268 16.8523 82.4185 16.9725 82.307 17.0834C82.1956 17.1882 82.0748 17.2807 81.9448 17.3608C82.0748 17.4533 82.1894 17.5611 82.2885 17.6844C82.3875 17.8077 82.4866 17.9402 82.5856 18.082L85.7619 22.6863H83.6908C83.5113 22.6863 83.3596 22.6555 83.2357 22.5938C83.1119 22.5322 83.0005 22.4274 82.9014 22.2795L80.4775 18.6829C80.3846 18.5412 80.2917 18.4487 80.1988 18.4056C80.106 18.3624 79.9667 18.3408 79.7809 18.3408H79.2608V22.6863H76.9669V8.94727H79.2608Z" fill="#10151B"/>
<path d="M87.8841 9.31709C87.9956 9.31709 88.0884 9.32325 88.1627 9.33558C88.237 9.34175 88.302 9.36024 88.3578 9.39106C88.4197 9.41571 88.4785 9.45578 88.5342 9.51125C88.59 9.56056 88.6519 9.62836 88.72 9.71465L95.7689 18.6552C95.7442 18.4395 95.7256 18.2299 95.7132 18.0265C95.707 17.8169 95.7039 17.6228 95.7039 17.444V9.31709H97.905V22.6863H96.6141C96.416 22.6863 96.2519 22.6555 96.1219 22.5938C95.9918 22.5322 95.8649 22.4213 95.7411 22.261L88.72 13.3574C88.7385 13.5547 88.7509 13.7519 88.7571 13.9492C88.7695 14.1402 88.7757 14.3159 88.7757 14.4762V22.6863H86.5746V9.31709H87.8841Z" fill="#10151B"/>
<path d="M103.809 13.0523C104.521 13.0523 105.165 13.1664 105.741 13.3944C106.323 13.6225 106.818 13.9461 107.227 14.3652C107.635 14.7844 107.951 15.2959 108.174 15.9C108.397 16.504 108.508 17.179 108.508 17.9248C108.508 18.6768 108.397 19.3548 108.174 19.9588C107.951 20.5629 107.635 21.0776 107.227 21.5029C106.818 21.9282 106.323 22.2548 105.741 22.4829C105.165 22.711 104.521 22.825 103.809 22.825C103.097 22.825 102.45 22.711 101.868 22.4829C101.286 22.2548 100.788 21.9282 100.373 21.5029C99.9641 21.0776 99.6453 20.5629 99.4162 19.9588C99.1933 19.3548 99.0819 18.6768 99.0819 17.9248C99.0819 17.179 99.1933 16.504 99.4162 15.9C99.6453 15.2959 99.9641 14.7844 100.373 14.3652C100.788 13.9461 101.286 13.6225 101.868 13.3944C102.45 13.1664 103.097 13.0523 103.809 13.0523ZM103.809 21.0683C104.602 21.0683 105.187 20.8033 105.564 20.2732C105.948 19.7431 106.14 18.9665 106.14 17.9433C106.14 16.9201 105.948 16.1404 105.564 15.6041C105.187 15.0679 104.602 14.7998 103.809 14.7998C103.004 14.7998 102.41 15.071 102.026 15.6134C101.642 16.1496 101.45 16.9263 101.45 17.9433C101.45 18.9603 101.642 19.7369 102.026 20.2732C102.41 20.8033 103.004 21.0683 103.809 21.0683Z" fill="#10151B"/>
<path d="M116.261 22.6863C115.963 22.6863 115.768 22.5476 115.675 22.2702L115.49 21.3549C115.292 21.5768 115.084 21.7771 114.867 21.9559C114.651 22.1346 114.415 22.2887 114.162 22.4182C113.914 22.5476 113.645 22.6462 113.354 22.714C113.069 22.788 112.759 22.825 112.425 22.825C111.905 22.825 111.428 22.7171 110.995 22.5014C110.561 22.2857 110.187 21.9744 109.871 21.5676C109.561 21.1546 109.32 20.6461 109.147 20.042C108.979 19.438 108.896 18.7477 108.896 17.971C108.896 17.2684 108.992 16.615 109.184 16.0109C109.376 15.4069 109.651 14.883 110.01 14.4392C110.369 13.9954 110.8 13.6502 111.301 13.4037C111.803 13.151 112.366 13.0246 112.991 13.0246C113.524 13.0246 113.979 13.1109 114.357 13.2835C114.734 13.4499 115.072 13.6749 115.369 13.9584V8.94727H117.663V22.6863H116.261ZM113.205 21.0128C113.682 21.0128 114.087 20.9142 114.422 20.717C114.756 20.5197 115.072 20.2393 115.369 19.8756V15.6226C115.109 15.3083 114.824 15.0864 114.515 14.9569C114.211 14.8275 113.883 14.7628 113.53 14.7628C113.183 14.7628 112.868 14.8275 112.583 14.9569C112.304 15.0864 112.066 15.2836 111.868 15.5487C111.676 15.8075 111.527 16.1404 111.422 16.5472C111.317 16.9478 111.264 17.4224 111.264 17.971C111.264 18.5258 111.307 18.9973 111.394 19.3856C111.487 19.7678 111.617 20.0821 111.784 20.3287C111.951 20.569 112.156 20.7447 112.397 20.8557C112.639 20.9604 112.908 21.0128 113.205 21.0128Z" fill="#10151B"/>
<path d="M123.343 13.0523C123.944 13.0523 124.495 13.1479 124.996 13.3389C125.504 13.53 125.94 13.8105 126.306 14.1803C126.671 14.544 126.956 14.9939 127.16 15.5302C127.365 16.0603 127.467 16.6674 127.467 17.3516C127.467 17.5241 127.457 17.669 127.439 17.7861C127.426 17.8971 127.399 17.9864 127.355 18.0542C127.318 18.1159 127.265 18.1621 127.197 18.1929C127.129 18.2176 127.043 18.2299 126.937 18.2299H121.049C121.117 19.2038 121.38 19.9188 121.839 20.3749C122.297 20.831 122.904 21.0591 123.659 21.0591C124.03 21.0591 124.349 21.0159 124.616 20.9296C124.888 20.8433 125.123 20.7478 125.321 20.643C125.526 20.5382 125.702 20.4427 125.851 20.3564C126.005 20.2701 126.154 20.227 126.296 20.227C126.389 20.227 126.47 20.2455 126.538 20.2824C126.606 20.3194 126.665 20.3718 126.714 20.4396L127.383 21.2717C127.129 21.5676 126.844 21.8172 126.529 22.0206C126.213 22.2179 125.882 22.3781 125.535 22.5014C125.194 22.6185 124.845 22.7017 124.485 22.751C124.133 22.8003 123.789 22.825 123.455 22.825C122.792 22.825 122.176 22.7171 121.606 22.5014C121.037 22.2795 120.542 21.9559 120.121 21.5306C119.699 21.0991 119.368 20.569 119.127 19.9403C118.885 19.3055 118.765 18.572 118.765 17.7399C118.765 17.0927 118.87 16.4856 119.08 15.9185C119.291 15.3453 119.591 14.8491 119.981 14.4299C120.377 14.0046 120.857 13.6687 121.421 13.4222C121.99 13.1756 122.631 13.0523 123.343 13.0523ZM123.39 14.6888C122.721 14.6888 122.198 14.8768 121.82 15.2528C121.442 15.6288 121.201 16.162 121.096 16.8523H125.405C125.405 16.5564 125.365 16.2791 125.284 16.0202C125.204 15.7551 125.08 15.524 124.913 15.3268C124.746 15.1295 124.535 14.9754 124.281 14.8645C124.027 14.7474 123.73 14.6888 123.39 14.6888Z" fill="#10151B"/>
<g clip-path="url(#clip0_14795_111996)">
<path fill-rule="evenodd" clip-rule="evenodd" d="M16 26C18.7165 26 21.18 24.9169 22.9821 23.1589C23.0316 23.1107 23.1106 23.1106 23.1595 23.1594L27.3137 27.3137L31.6256 31.6255C31.7188 31.7188 31.6228 31.8742 31.4977 31.8325L24.6164 29.5388C24.5808 29.5269 24.5417 29.5317 24.5099 29.5517C22.0451 31.1028 19.1273 32 16 32C7.16344 32 0 24.8366 0 16C0 7.16344 7.16344 0 16 0C24.8366 0 32 7.16344 32 16C32 19.7742 30.6932 23.2432 28.5074 25.9792C28.4611 26.0371 28.3749 26.0415 28.3225 25.9891L19.8744 17.5411C19.7811 17.4478 19.8772 17.2924 20.0023 17.3341L25.3708 19.1236C25.4363 19.1454 25.5072 19.1101 25.5282 19.0443C25.8346 18.0844 26 17.0615 26 16C26 10.4772 21.5228 6 16 6C10.4772 6 6 10.4772 6 16C6 21.5228 10.4772 26 16 26Z" fill="#000"/>
</g>
<defs>
<clipPath id="clip0_14795_111996">
<rect width="32" height="32" fill="white"/>
</clipPath>
</defs>
</svg>