<?xml version="1.0" standalone="no"?>
<!DOCTYPE svg PUBLIC "-//W3C//DTD SVG 20010904//EN"
 "http://www.w3.org/TR/2001/REC-SVG-20010904/DTD/svg10.dtd">
<svg version="1.0" xmlns="http://www.w3.org/2000/svg"
 width="700.000000pt" height="700.000000pt" viewBox="0 0 700.000000 700.000000"
 preserveAspectRatio="xMidYMid meet">
<metadata>
Created by potrace 1.14, written by Peter Selinger 2001-2017
</metadata>
<g transform="translate(0.000000,700.000000) scale(0.100000,-0.100000)"
fill="#000000" stroke="none">
<path d="M830 6558 c-114 -13 -199 -56 -279 -143 -46 -50 -95 -146 -107 -210
-4 -22 -7 -845 -7 -1830 0 -1940 -3 -1846 55 -1957 53 -101 187 -203 293 -223
17 -3 339 -6 717 -6 l686 0 0 -687 c0 -505 3 -699 12 -732 45 -170 199 -306
370 -327 72 -9 3551 -9 3615 0 96 13 198 67 266 140 43 46 97 164 105 227 9
70 9 3557 0 3630 -14 122 -110 257 -224 318 -103 55 -94 54 -833 54 l-687 0 0
688 c0 749 1 732 -58 840 -53 97 -170 185 -281 211 -54 13 -3529 19 -3643 7z
m3545 -1068 c0 -349 -1 -645 -3 -656 l-4 -22 -902 0 c-661 0 -915 -4 -947 -12
-155 -42 -283 -173 -319 -327 -9 -39 -12 -286 -13 -950 l-2 -898 -645 -1
c-355 0 -650 1 -655 3 -7 2 -10 590 -9 1746 1 958 2 1744 3 1747 0 3 787 5
1748 5 l1748 0 0 -635z m-5 -1119 c4 -1 5 -1703 1 -1736 -1 -7 -293 -10 -868
-9 -478 1 -870 2 -873 3 -3 0 -5 392 -5 871 0 746 2 870 14 872 14 3 1720 2
1731 -1z"/>
</g>
</svg>
