<?xml version="1.0" encoding="UTF-8"?>
<svg id="icon"
    xmlns="http://www.w3.org/2000/svg"
    xmlns:xlink="http://www.w3.org/1999/xlink" viewBox="0 0 64 64">
    <defs>
        <radialGradient id="radial-gradient" cx="-160.44268" cy="547.52801" fx="-160.44268" fy="547.52801" r="1" gradientTransform="translate(-33758.30674 9909.60721) rotate(90) scale(61.7143 -61.7143)" gradientUnits="userSpaceOnUse">
            <stop offset="0" stop-color="#000"/>
            <stop offset="1" stop-color="#000"/>
        </radialGradient>
        <linearGradient id="linear-gradient" x1="16.58716" y1="294.35056" x2="27.08716" y2="274.85056" gradientTransform="translate(0 297.72671) scale(1 -1)" gradientUnits="userSpaceOnUse">
            <stop offset="0" stop-color="#000"/>
            <stop offset="1" stop-color="#000" stop-opacity="0"/>
        </linearGradient>
    </defs>
    <path d="M32,8h0c13.25484,0,24,10.74516,24,24h0c0,13.25484-10.74516,24-24,24h0c-13.25484,0-24-10.74516-24-24h0c0-13.25484,10.74516-24,24-24Z" fill="#fff"/>
    <path d="M32,8.5h0c12.97869,0,23.5,10.52131,23.5,23.5h0c0,12.97869-10.52131,23.5-23.5,23.5h0c-12.97869,0-23.5-10.52131-23.5-23.5h0c0-12.97869,10.52131-23.5,23.5-23.5Z" fill="none" stroke="url(#radial-gradient)" stroke-opacity=".15"/>
    <path d="M32,8.5h0c12.97869,0,23.5,10.52131,23.5,23.5h0c0,12.97869-10.52131,23.5-23.5,23.5h0c-12.97869,0-23.5-10.52131-23.5-23.5h0c0-12.97869,10.52131-23.5,23.5-23.5Z" fill="none" stroke="url(#linear-gradient)" stroke-opacity=".5"/>
    <path d="M32,.5h0c17.39697,0,31.5,14.10303,31.5,31.5h0c0,17.39697-14.10303,31.5-31.5,31.5h0C14.60303,63.5,.5,49.39697,.5,32H.5C.5,14.60303,14.60303,.5,32,.5Z" fill="none" stroke="rgba(0,0,0,.1)"/>
    <path d="M32.625,37.11475v-2.61475h-1.25v2.61475c-.97631,.34518-1.48794,1.41646-1.14277,2.39277,.34518,.97631,1.41646,1.48795,2.39277,1.14277s1.48795-1.41646,1.14277-2.39277c-.18878-.53396-.6088-.95398-1.14277-1.14277Z"/>
    <path d="M38.25,29.5c-1.13677,.00345-2.12781,.77411-2.41119,1.875h-7.67762c-.34518-1.33687-1.70875-2.14079-3.04561-1.79561-1.33687,.34518-2.14079,1.70875-1.79561,3.04561,.34518,1.33687,1.70875,2.14079,3.04561,1.79561,.88059-.22737,1.56825-.91502,1.79561-1.79561h7.67762c.34746,1.33392,1.71049,2.13361,3.04441,1.78615s2.13361-1.71049,1.78615-3.04441c-.28677-1.10092-1.28172-1.86861-2.41938-1.86674Zm-12.5,3.75c-.69036,0-1.25-.55964-1.25-1.25s.55964-1.25,1.25-1.25,1.25,.55964,1.25,1.25c-.00086,.69-.56,1.24914-1.25,1.25Zm12.5,0c-.69036,0-1.25-.55964-1.25-1.25s.55964-1.25,1.25-1.25,1.25,.55964,1.25,1.25c-.00086,.69-.56,1.24914-1.25,1.25Z"/>
    <path d="M33.875,25.125c.00415-1.03553-.83195-1.87835-1.86747-1.8825s-1.87835,.83195-1.8825,1.86747c-.00319,.79734,.49823,1.50949,1.24997,1.77527v2.61475h1.25v-2.61475c.74753-.26264,1.24837-.96792,1.25-1.76025Z"/>
    <rect id="_Transparent_Rectangle_" x="22" y="22" width="20" height="20" fill="none"/>
</svg>