<?xml version="1.0" encoding="UTF-8"?>
<svg id="icon"
    xmlns="http://www.w3.org/2000/svg"
    xmlns:xlink="http://www.w3.org/1999/xlink" viewBox="0 0 64 64">
    <defs>
        <radialGradient id="radial-gradient" cx="-160.44268" cy="547.52801" fx="-160.44268" fy="547.52801" r="1" gradientTransform="translate(-33758.30674 9909.60721) rotate(90) scale(61.7143 -61.7143)" gradientUnits="userSpaceOnUse">
            <stop offset="0" stop-color="#000"/>
            <stop offset="1" stop-color="#000"/>
        </radialGradient>
        <linearGradient id="linear-gradient" x1="16.58716" y1="294.35056" x2="27.08716" y2="274.85056" gradientTransform="translate(0 297.72671) scale(1 -1)" gradientUnits="userSpaceOnUse">
            <stop offset="0" stop-color="#000"/>
            <stop offset="1" stop-color="#000" stop-opacity="0"/>
        </linearGradient>
    </defs>
    <path d="M32,8h0c13.25484,0,24,10.74516,24,24h0c0,13.25484-10.74516,24-24,24h0c-13.25484,0-24-10.74516-24-24h0c0-13.25484,10.74516-24,24-24Z" fill="#fff"/>
    <path d="M32,8.5h0c12.97869,0,23.5,10.52131,23.5,23.5h0c0,12.97869-10.52131,23.5-23.5,23.5h0c-12.97869,0-23.5-10.52131-23.5-23.5h0c0-12.97869,10.52131-23.5,23.5-23.5Z" fill="none" stroke="url(#radial-gradient)" stroke-opacity=".15"/>
    <path d="M32,8.5h0c12.97869,0,23.5,10.52131,23.5,23.5h0c0,12.97869-10.52131,23.5-23.5,23.5h0c-12.97869,0-23.5-10.52131-23.5-23.5h0c0-12.97869,10.52131-23.5,23.5-23.5Z" fill="none" stroke="url(#linear-gradient)" stroke-opacity=".5"/>
    <path d="M32,.5h0c17.39697,0,31.5,14.10303,31.5,31.5h0c0,17.39697-14.10303,31.5-31.5,31.5h0C14.60303,63.5,.5,49.39697,.5,32H.5C.5,14.60303,14.60303,.5,32,.5Z" fill="none" stroke="rgba(0,0,0,.1)"/>
    <path d="M32,37.875l-5-2.9375v-5.875l5-2.9375,5,2.9375v5.875l-5,2.9375Zm-3.75-3.625l3.75,2.1875,3.75-2.1875v-4.4375l-3.75-2.1875-3.75,2.1875v4.4375Z"/>
    <path d="M38.875,27.125l-6.25-3.6875c-.1875-.125-.375-.1875-.625-.1875s-.4375,.0625-.625,.1875l-6.25,3.6875c-.375,.25-.625,.625-.625,1.0625v7.625c0,.4375,.25,.875,.625,1.0625l6.25,3.6875c.1875,.125,.4375,.1875,.625,.1875s.4375-.0625,.625-.1875l6.25-3.6875c.375-.25,.625-.625,.625-1.0625v-7.625c0-.4375-.25-.875-.625-1.0625Zm-.625,8.6875l-6.25,3.6875-6.25-3.6875v-7.625l6.25-3.6875,6.25,3.6875v7.625Z"/>
    <rect id="_Transparent_Rectangle_" x="22" y="22" width="20" height="20" fill="none"/>
</svg>