<?xml version="1.0" encoding="UTF-8"?>
<svg id="icon"
    xmlns="http://www.w3.org/2000/svg"
    xmlns:xlink="http://www.w3.org/1999/xlink" viewBox="0 0 64 64">
    <defs>
        <radialGradient id="radial-gradient" cx="-160.44268" cy="547.52801" fx="-160.44268" fy="547.52801" r="1" gradientTransform="translate(-33758.30674 9909.60721) rotate(90) scale(61.7143 -61.7143)" gradientUnits="userSpaceOnUse">
            <stop offset="0" stop-color="#000"/>
            <stop offset="1" stop-color="#000"/>
        </radialGradient>
        <linearGradient id="linear-gradient" x1="16.58716" y1="294.35056" x2="27.08716" y2="274.85056" gradientTransform="translate(0 297.72671) scale(1 -1)" gradientUnits="userSpaceOnUse">
            <stop offset="0" stop-color="#000"/>
            <stop offset="1" stop-color="#000" stop-opacity="0"/>
        </linearGradient>
    </defs>
    <path d="M32,8h0c13.25484,0,24,10.74516,24,24h0c0,13.25484-10.74516,24-24,24h0c-13.25484,0-24-10.74516-24-24h0c0-13.25484,10.74516-24,24-24Z" fill="#fff"/>
    <path d="M32,8.5h0c12.97869,0,23.5,10.52131,23.5,23.5h0c0,12.97869-10.52131,23.5-23.5,23.5h0c-12.97869,0-23.5-10.52131-23.5-23.5h0c0-12.97869,10.52131-23.5,23.5-23.5Z" fill="none" stroke="url(#radial-gradient)" stroke-opacity=".15"/>
    <path d="M32,8.5h0c12.97869,0,23.5,10.52131,23.5,23.5h0c0,12.97869-10.52131,23.5-23.5,23.5h0c-12.97869,0-23.5-10.52131-23.5-23.5h0c0-12.97869,10.52131-23.5,23.5-23.5Z" fill="none" stroke="url(#linear-gradient)" stroke-opacity=".5"/>
    <path d="M32,.5h0c17.39697,0,31.5,14.10303,31.5,31.5h0c0,17.39697-14.10303,31.5-31.5,31.5h0C14.60303,63.5,.5,49.39697,.5,32H.5C.5,14.60303,14.60303,.5,32,.5Z" fill="none" stroke="rgba(0,0,0,.1)"/>
    <rect id="_Transparent_Rectangle_" x="22" y="22.0002" width="20" height="20" fill="none"/>
    <polygon points="40.58385 40.75 36.83385 40.75 36.83385 39.5 39.33385 39.5 39.33385 24.5 36.83385 24.5 36.83385 23.25 40.58385 23.25 40.58385 40.75"/>
    <path d="M37.4026,34.24375c-.18773-.90719-.80924-1.66421-1.6625-2.025-.7-.29167-1.4875-.29167-2.1875,0-.13854,.06296-.27224,.13608-.4,.21875l-1.75625-1.75625c.83521-1.32191,.44066-3.0706-.88125-3.90581-1.32191-.83521-3.0706-.44066-3.90581,.88125-.83521,1.32191-.44066,3.0706,.88125,3.90581,.92372,.58363,2.10084,.58363,3.02456,0l1.75625,1.75625c-.38951,.61214-.52619,1.35157-.38125,2.0625,.18773,.90719,.80924,1.66421,1.6625,2.025,.7,.29167,1.4875,.29167,2.1875,0,.85326-.36079,1.47477-1.11781,1.6625-2.025,.07493-.37547,.07493-.76203,0-1.1375Zm-8.38125-3.49375c-.86294,0-1.5625-.69956-1.5625-1.5625s.69956-1.5625,1.5625-1.5625,1.5625,.69956,1.5625,1.5625-.69956,1.5625-1.5625,1.5625Z"/>
    <polygon points="26.83385 40.75 23.08385 40.75 23.08385 23.25 26.83385 23.25 26.83385 24.5 24.33385 24.5 24.33385 39.5 26.83385 39.5 26.83385 40.75"/>
    <rect id="_Transparent_Rectangle_-2" x="21.83385" y="22" width="20" height="20" fill="none"/>
</svg>