<?xml version="1.0" encoding="UTF-8"?>
<svg id="Layer_1"
    xmlns="http://www.w3.org/2000/svg"
    xmlns:xlink="http://www.w3.org/1999/xlink" viewBox="0 0 64 64">
    <defs>
        <radialGradient id="radial-gradient" cx="-3080.48492" cy="573.53457" fx="-3080.48492" fy="573.53457" r="1.00001" gradientTransform="translate(-35363.78332 190117.46078) rotate(90) scale(61.7143 -61.7143)" gradientUnits="userSpaceOnUse">
            <stop offset="0" stop-color="#000"/>
            <stop offset="1" stop-color="#000"/>
        </radialGradient>
        <linearGradient id="linear-gradient" x1="-1111.91284" y1="-152.96747" x2="-1101.41284" y2="-172.46747" gradientTransform="translate(1128 -150.09131) scale(1 -1)" gradientUnits="userSpaceOnUse">
            <stop offset="0" stop-color="#000"/>
            <stop offset="1" stop-color="#000" stop-opacity="0"/>
        </linearGradient>
    </defs>
    <path d="m31.5,0h0c17.39697,0,31.5,14.10303,31.5,31.5h0c0,17.39697-14.10303,31.5-31.5,31.5h0C14.10303,63,0,48.89697,0,31.5h0C0,14.10303,14.10303,0,31.5,0Z" fill="none" stroke="rgba(0,0,0,.1)"/>
    <path d="m31.5,7.5h0c13.25484,0,24,10.74516,24,24h0c0,13.25484-10.74516,24-24,24h0c-13.25484,0-24-10.74516-24-24h0c0-13.25484,10.74516-24,24-24Z" fill="#fff"/>
    <path d="m31.5,8h0c12.97869,0,23.5,10.52131,23.5,23.5h0c0,12.97869-10.52131,23.5-23.5,23.5h0c-12.97869,0-23.5-10.52131-23.5-23.5h0c0-12.97869,10.52131-23.5,23.5-23.5Z" fill="none" stroke="url(#radial-gradient)" stroke-opacity=".15"/>
    <path d="m31.5,8h0c12.97869,0,23.5,10.52131,23.5,23.5h0c0,12.97869-10.52131,23.5-23.5,23.5h0c-12.97869,0-23.5-10.52131-23.5-23.5h0c0-12.97869,10.52131-23.5,23.5-23.5Z" fill="none" stroke="url(#linear-gradient)" stroke-opacity=".5"/>
    <path d="m31.5,0h0c17.39697,0,31.5,14.10303,31.5,31.5h0c0,17.39697-14.10303,31.5-31.5,31.5h0C14.10303,63,0,48.89697,0,31.5h0C0,14.10303,14.10303,0,31.5,0Z" fill="none"/>
    <rect id="_Transparent_Rectangle_-2" x="21.5" y="21.5" width="20" height="20" fill="none"/>
    <polygon points="37.92857 27.92857 36.92143 28.93571 38.76429 30.78571 32.21429 30.78571 32.21429 24.23571 34.06429 26.07857 35.07143 25.07143 31.5 21.5 27.92857 25.07143 28.93571 26.07857 30.78571 24.23571 30.78571 30.78571 24.23571 30.78571 26.07857 28.93571 25.07143 27.92857 21.5 31.5 25.07143 35.07143 26.07857 34.06429 24.23571 32.21429 30.78571 32.21429 30.78571 38.76429 28.93571 36.92143 27.92857 37.92857 31.5 41.5 35.07143 37.92857 34.06429 36.92143 32.21429 38.76429 32.21429 32.21429 38.76429 32.21429 36.92143 34.06429 37.92857 35.07143 41.5 31.5 37.92857 27.92857"/>
</svg>