<?xml version="1.0" encoding="UTF-8"?>
<svg id="Layer_1"
    xmlns="http://www.w3.org/2000/svg"
    xmlns:xlink="http://www.w3.org/1999/xlink" viewBox="0 0 63 63">
    <defs>
        <radialGradient id="radial-gradient" cx="-1639.43037" cy="240.51014" fx="-1639.43037" fy="240.51014" r="1.00001" gradientTransform="translate(14874.41421 101183.7948) rotate(90) scale(61.7143)" gradientUnits="userSpaceOnUse">
            <stop offset="0" stop-color="#fff"/>
            <stop offset="1" stop-color="#fff"/>
        </radialGradient>
        <linearGradient id="linear-gradient" x1="-547.91284" y1="724.97553" x2="-537.41284" y2="744.47553" gradientTransform="translate(564 -722.09938)" gradientUnits="userSpaceOnUse">
            <stop offset="0" stop-color="#fff"/>
            <stop offset="1" stop-color="#fff" stop-opacity="0"/>
        </linearGradient>
    </defs>
    <path d="m31.5,7.5h0c13.25484,0,24,10.74516,24,24h0c0,13.25484-10.74516,24-24,24h0c-13.25484,0-24-10.74516-24-24h0c0-13.25484,10.74516-24,24-24Z"/>
    <path d="m31.5,8h0c12.97869,0,23.5,10.52131,23.5,23.5h0c0,12.97869-10.52131,23.5-23.5,23.5h0c-12.97869,0-23.5-10.52131-23.5-23.5h0c0-12.97869,10.52131-23.5,23.5-23.5Z" fill="none" stroke="url(#radial-gradient)" stroke-opacity=".15"/>
    <path d="m31.5,8h0c12.97869,0,23.5,10.52131,23.5,23.5h0c0,12.97869-10.52131,23.5-23.5,23.5h0c-12.97869,0-23.5-10.52131-23.5-23.5h0c0-12.97869,10.52131-23.5,23.5-23.5Z" fill="none" stroke="url(#linear-gradient)" stroke-opacity=".5"/>
    <path d="m31.5,0h0c17.39697,0,31.5,14.10303,31.5,31.5h0c0,17.39697-14.10303,31.5-31.5,31.5h0C14.10303,63,0,48.89697,0,31.5h0C0,14.10303,14.10303,0,31.5,0Z" fill="none" stroke="rgba(255,255,255,.1)"/>
    <polygon points="38.24832 27.99107 37.24118 28.99821 39.08404 30.84821 32.53404 30.84821 32.53404 24.29821 34.38404 26.14107 35.39118 25.13393 31.81975 21.5625 28.24832 25.13393 29.25546 26.14107 31.10546 24.29821 31.10546 30.84821 24.55546 30.84821 26.39832 28.99821 25.39118 27.99107 21.81975 31.5625 25.39118 35.13393 26.39832 34.12679 24.55546 32.27679 31.10546 32.27679 31.10546 38.82679 29.25546 36.98393 28.24832 37.99107 31.81975 41.5625 35.39118 37.99107 34.38404 36.98393 32.53404 38.82679 32.53404 32.27679 39.08404 32.27679 37.24118 34.12679 38.24832 35.13393 41.81975 31.5625 38.24832 27.99107" fill="#fff"/>
</svg>