<?xml version="1.0" encoding="UTF-8"?>
<svg id="icon"
    xmlns="http://www.w3.org/2000/svg"
    xmlns:xlink="http://www.w3.org/1999/xlink" viewBox="0 0 64 64">
    <defs>
        <radialGradient id="radial-gradient" cx="-160.44268" cy="547.52801" fx="-160.44268" fy="547.52801" r="1" gradientTransform="translate(-33758.30674 9909.60721) rotate(90) scale(61.7143 -61.7143)" gradientUnits="userSpaceOnUse">
            <stop offset="0" stop-color="#000"/>
            <stop offset="1" stop-color="#000"/>
        </radialGradient>
        <linearGradient id="linear-gradient" x1="16.58716" y1="294.35056" x2="27.08716" y2="274.85056" gradientTransform="translate(0 297.72671) scale(1 -1)" gradientUnits="userSpaceOnUse">
            <stop offset="0" stop-color="#000"/>
            <stop offset="1" stop-color="#000" stop-opacity="0"/>
        </linearGradient>
    </defs>
    <path d="M32,8h0c13.25484,0,24,10.74516,24,24h0c0,13.25484-10.74516,24-24,24h0c-13.25484,0-24-10.74516-24-24h0c0-13.25484,10.74516-24,24-24Z" fill="#fff"/>
    <path d="M32,8.5h0c12.97869,0,23.5,10.52131,23.5,23.5h0c0,12.97869-10.52131,23.5-23.5,23.5h0c-12.97869,0-23.5-10.52131-23.5-23.5h0c0-12.97869,10.52131-23.5,23.5-23.5Z" fill="none" stroke="url(#radial-gradient)" stroke-opacity=".15"/>
    <path d="M32,8.5h0c12.97869,0,23.5,10.52131,23.5,23.5h0c0,12.97869-10.52131,23.5-23.5,23.5h0c-12.97869,0-23.5-10.52131-23.5-23.5h0c0-12.97869,10.52131-23.5,23.5-23.5Z" fill="none" stroke="url(#linear-gradient)" stroke-opacity=".5"/>
    <path d="M32,.5h0c17.39697,0,31.5,14.10303,31.5,31.5h0c0,17.39697-14.10303,31.5-31.5,31.5h0C14.60303,63.5,.5,49.39697,.5,32H.5C.5,14.60303,14.60303,.5,32,.5Z" fill="none" stroke="rgba(0,0,0,.1)"/>
    <rect id="_Transparent_Rectangle_" x="21.83385" y="22.0002" width="20" height="20" fill="none"/>
    <path d="M26.375,25.25645c-.26577-.00339-.47847-.22158-.47508-.48734,.00188-.14715,.07098-.28536,.18758-.37516,1.7245-1.22003,3.80131-1.84132,5.9125-1.76875,1.6625,0,4.05,.28125,5.9375,1.6375,.21487,.15415,.2651,.45278,.1125,.66875-.15838,.21356-.45867,.26083-.675,.10625-1.60281-1.01862-3.47719-1.52645-5.375-1.45625-1.8947-.06437-3.75905,.48836-5.3125,1.575-.08844,.0704-.19961,.10598-.3125,.1Z"/>
    <path d="M39.64375,29.6627c-.15678-.00143-.3033-.07818-.39375-.20625-1.08125-1.525-3.0125-3.55625-7.25-3.55625-2.85957-.07201-5.5738,1.25827-7.26875,3.5625-.15608,.21278-.4544,.26017-.66875,.10625-.21532-.14985-.2684-.44589-.11854-.66121,.00779-.0112,.01607-.02205,.02479-.03254,1.87881-2.5381,4.87427-4.00436,8.03125-3.93125,3.50625,0,6.13125,1.3,8.025,3.9625,.15131,.21759,.09822,.51656-.11875,.66875-.07737,.05359-.16845,.08395-.2625,.0875Z"/>
    <path d="M29.675,41.3752c-.19833-.00104-.37626-.12213-.45-.30625-.10115-.23831,.01004-.51349,.24835-.61463,.00878-.00373,.01767-.00718,.02665-.01037,2.73125-1.05,4.375-3.2,4.375-5.75625,.0717-.96384-.65152-1.8033-1.61536-1.875-.08643-.00643-.17321-.00643-.25964,0-1.1625,0-1.725,.625-1.875,2.09375-.14496,1.42766-1.39292,2.48511-2.825,2.39375-1.47375,.02142-2.68583-1.15594-2.70724-2.62969-.00116-.07975,.00126-.15952,.00724-.23906,.07189-4.02251,3.3771-7.23281,7.4-7.1875,4.12511-.00007,7.47594,3.33121,7.5,7.45625-.04412,1.39525-.33837,2.77124-.86875,4.0625-.10581,.2393-.38166,.3524-.625,.25625-.24256-.09991-.35821-.37754-.2583-.62011,.00067-.00164,.00136-.00327,.00205-.00489,.47994-1.17493,.74864-2.42538,.79375-3.69375-.01722-3.59978-2.94393-6.50693-6.54375-6.5-3.51322-.06957-6.41765,2.72206-6.48723,6.23528-.0001,.00491-.00019,.00981-.00027,.01472-.10018,.95088,.58945,1.80293,1.54033,1.90311,.06756,.00712,.13549,.01025,.20342,.00939,.94115,.09358,1.77996-.5935,1.87354-1.53465,.00051-.00511,.00099-.01023,.00146-.01535,.225-1.94375,1.18125-2.93125,2.85-2.93125,1.48582-.0751,2.7512,1.06851,2.8263,2.55433,.00498,.09851,.00454,.19721-.0013,.29567,0,2.9625-1.875,5.45-5,6.64375-.04361,.00501-.08764,.00501-.13125,0Z"/>
    <path d="M34.35625,40.9252c-.11971-.00193-.23486-.04622-.325-.125-.1864-.1846-.18785-.48535-.00326-.67174,.00108-.00109,.00217-.00218,.00326-.00326,1.40612-1.45755,2.19824-3.3998,2.2125-5.425,0-.975-.3-4.15625-4.1875-4.15625-1.14426-.04025-2.25672,.38087-3.0875,1.16875-.74349,.73561-1.15629,1.74168-1.14375,2.7875-.00342,.26334-.21788,.47502-.48125,.475h0c-.26231,.00345-.47776-.2064-.48121-.46871-.00003-.0021-.00004-.00419-.00004-.00629-.01968-1.29337,.48012-2.54062,1.3875-3.4625,1.0058-.96537,2.35639-1.4876,3.75-1.45,3.8,0,5.15,2.75,5.15,5.1125-.00817,2.25432-.88057,4.41966-2.4375,6.05-.08698,.10821-.21744,.1723-.35625,.175Z"/>
    <path d="M27.4125,39.3377c-.32579-.00076-.65129-.01954-.975-.05625-.26234-.02934-.45122-.26579-.42188-.52812,.02934-.26234,.26579-.45122,.52813-.42188,1.55625,.175,2.78125-.1,3.65-.825,.80919-.72364,1.2878-1.74633,1.325-2.83125,.01265-.25857,.23252-.45794,.49109-.44529,.00715,.00035,.01428,.00086,.02141,.00154,.26188,.01998,.46086,.24383,.45,.50625-.05322,1.35094-.65877,2.62079-1.675,3.5125-.96473,.75681-2.16883,1.14265-3.39375,1.0875Z"/>
    <rect id="_Transparent_Rectangle_-2" x="22" y="22.0002" width="20" height="20" fill="none"/>
</svg>