<?xml version="1.0" encoding="UTF-8"?>
<svg id="icon"
    xmlns="http://www.w3.org/2000/svg"
    xmlns:xlink="http://www.w3.org/1999/xlink" viewBox="0 0 64 64">
    <defs>
        <radialGradient id="radial-gradient" cx="-160.44268" cy="547.52801" fx="-160.44268" fy="547.52801" r="1" gradientTransform="translate(-33758.30674 9909.60721) rotate(90) scale(61.7143 -61.7143)" gradientUnits="userSpaceOnUse">
            <stop offset="0" stop-color="#000"/>
            <stop offset="1" stop-color="#000"/>
        </radialGradient>
        <linearGradient id="linear-gradient" x1="16.58716" y1="294.35056" x2="27.08716" y2="274.85056" gradientTransform="translate(0 297.72671) scale(1 -1)" gradientUnits="userSpaceOnUse">
            <stop offset="0" stop-color="#000"/>
            <stop offset="1" stop-color="#000" stop-opacity="0"/>
        </linearGradient>
    </defs>
    <path d="M32,8h0c13.25484,0,24,10.74516,24,24h0c0,13.25484-10.74516,24-24,24h0c-13.25484,0-24-10.74516-24-24h0c0-13.25484,10.74516-24,24-24Z" fill="#fff"/>
    <path d="M32,8.5h0c12.97869,0,23.5,10.52131,23.5,23.5h0c0,12.97869-10.52131,23.5-23.5,23.5h0c-12.97869,0-23.5-10.52131-23.5-23.5h0c0-12.97869,10.52131-23.5,23.5-23.5Z" fill="none" stroke="url(#radial-gradient)" stroke-opacity=".15"/>
    <path d="M32,8.5h0c12.97869,0,23.5,10.52131,23.5,23.5h0c0,12.97869-10.52131,23.5-23.5,23.5h0c-12.97869,0-23.5-10.52131-23.5-23.5h0c0-12.97869,10.52131-23.5,23.5-23.5Z" fill="none" stroke="url(#linear-gradient)" stroke-opacity=".5"/>
    <path d="M32,.5h0c17.39697,0,31.5,14.10303,31.5,31.5h0c0,17.39697-14.10303,31.5-31.5,31.5h0C14.60303,63.5,.5,49.39697,.5,32H.5C.5,14.60303,14.60303,.5,32,.5Z" fill="none" stroke="rgba(0,0,0,.1)"/>
    <rect id="_Transparent_Rectangle_" x="21.83385" y="22.0002" width="20" height="20" fill="none"/>
    <path d="M29.25625,40.7c-.26311-.11106-.41747-.38634-.375-.66875l1.1375-7.40625h-3.01875c-.34505,.00928-.6323-.26291-.64158-.60796-.00146-.05409,.00412-.10813,.01658-.16078l1.875-8.125c.06801-.28823,.32896-.48916,.625-.48125h6.25c.18912-.00064,.36836,.08438,.4875,.23125,.12087,.14858,.16693,.34437,.125,.53125l-1.08125,4.8625h2.96875c.239-.00048,.45734,.13538,.5625,.35,.09118,.20553,.06492,.4442-.06875,.625l-8.125,10.625c-.11137,.16509-.29475,.26723-.49375,.275-.08363-.00156-.16626-.01851-.24375-.05Zm3.8375-10.575l1.25-5.625h-4.96875l-1.5875,6.875h3.69375l-.99375,6.425,5.8875-7.675h-3.28125Z"/>
    <rect id="_Transparent_Rectangle_-2" x="22" y="22" width="20" height="20" fill="none"/>
</svg>