<?xml version="1.0" encoding="UTF-8"?>
<svg id="icon"
    xmlns="http://www.w3.org/2000/svg"
    xmlns:xlink="http://www.w3.org/1999/xlink" viewBox="0 0 64 64">
    <defs>
        <radialGradient id="radial-gradient" cx="-226.92877" cy="461.7151" fx="-226.92877" fy="461.7151" r="1" gradientTransform="translate(-28462.42366 14012.75003) rotate(90) scale(61.7143 -61.7143)" gradientUnits="userSpaceOnUse">
            <stop offset="0" stop-color="#fff"/>
            <stop offset="1" stop-color="#fff"/>
        </radialGradient>
        <linearGradient id="linear-gradient" x1="16.58716" y1="120.52447" x2="27.08716" y2="101.02447" gradientTransform="translate(0 123.90062) scale(1 -1)" gradientUnits="userSpaceOnUse">
            <stop offset="0" stop-color="#fff"/>
            <stop offset="1" stop-color="#fff" stop-opacity="0"/>
        </linearGradient>
    </defs>
    <path d="M32,8h0c13.25484,0,24,10.74516,24,24h0c0,13.25484-10.74516,24-24,24h0c-13.25484,0-24-10.74516-24-24h0c0-13.25484,10.74516-24,24-24Z"/>
    <path d="M32,8.5h0c12.97869,0,23.5,10.52131,23.5,23.5h0c0,12.97869-10.52131,23.5-23.5,23.5h0c-12.97869,0-23.5-10.52131-23.5-23.5h0c0-12.97869,10.52131-23.5,23.5-23.5Z" fill="none" stroke="url(#radial-gradient)" stroke-opacity=".15"/>
    <path d="M32,8.5h0c12.97869,0,23.5,10.52131,23.5,23.5h0c0,12.97869-10.52131,23.5-23.5,23.5h0c-12.97869,0-23.5-10.52131-23.5-23.5h0c0-12.97869,10.52131-23.5,23.5-23.5Z" fill="none" stroke="url(#linear-gradient)" stroke-opacity=".5"/>
    <path d="M32,.5h0c17.39697,0,31.5,14.10303,31.5,31.5h0c0,17.39697-14.10303,31.5-31.5,31.5h0C14.60303,63.5,.5,49.39697,.5,32H.5C.5,14.60303,14.60303,.5,32,.5Z" fill="none" stroke="rgba(255,255,255,.1)"/>
    <path d="M32.05221,34.48118c-1.38071,0-2.5-1.11929-2.5-2.5s1.11929-2.5,2.5-2.5,2.5,1.11929,2.5,2.5c-.00155,1.38007-1.11993,2.49845-2.5,2.5Zm0-3.75c-.69036,0-1.25,.55964-1.25,1.25s.55964,1.25,1.25,1.25,1.25-.55964,1.25-1.25c-.00072-.69006-.55994-1.24928-1.25-1.25Z" fill="#fff"/>
    <path d="M25.17721,34.48118c-1.38071,0-2.5-1.11929-2.5-2.5s1.11929-2.5,2.5-2.5,2.5,1.11929,2.5,2.5c-.00155,1.38007-1.11993,2.49845-2.5,2.5Zm0-3.75c-.69036,0-1.25,.55964-1.25,1.25s.55964,1.25,1.25,1.25,1.25-.55964,1.25-1.25c-.00079-.69003-.55997-1.24921-1.25-1.25Z" fill="#fff"/>
    <path d="M28.30221,41.35618c-1.38071,0-2.5-1.11929-2.5-2.5s1.11929-2.5,2.5-2.5,2.5,1.11929,2.5,2.5c-.00155,1.38007-1.11993,2.49845-2.5,2.5Zm0-3.75c-.69036,0-1.25,.55964-1.25,1.25s.55964,1.25,1.25,1.25,1.25-.55964,1.25-1.25c-.00072-.69006-.55994-1.24928-1.25-1.25Z" fill="#fff"/>
    <path d="M35.80221,41.35618c-1.38071,0-2.5-1.11929-2.5-2.5s1.11929-2.5,2.5-2.5,2.5,1.11929,2.5,2.5c-.00155,1.38007-1.11993,2.49845-2.5,2.5Zm0-3.75c-.69036,0-1.25,.55964-1.25,1.25s.55964,1.25,1.25,1.25,1.25-.55964,1.25-1.25c-.00072-.69006-.55994-1.24928-1.25-1.25Z" fill="#fff"/>
    <path d="M38.92721,34.48118c-1.38071,0-2.5-1.11929-2.5-2.5s1.11929-2.5,2.5-2.5,2.5,1.11929,2.5,2.5c-.00155,1.38007-1.11993,2.49845-2.5,2.5Zm0-3.75c-.69036,0-1.25,.55964-1.25,1.25s.55964,1.25,1.25,1.25,1.25-.55964,1.25-1.25c-.00072-.69006-.55994-1.24928-1.25-1.25Z" fill="#fff"/>
    <path d="M35.80221,27.60618c-1.38071,0-2.5-1.11929-2.5-2.5s1.11929-2.5,2.5-2.5,2.5,1.11929,2.5,2.5c-.00155,1.38007-1.11993,2.49845-2.5,2.5Zm0-3.75c-.69036,0-1.25,.55964-1.25,1.25s.55964,1.25,1.25,1.25,1.25-.55964,1.25-1.25c-.00072-.69006-.55994-1.24928-1.25-1.25Z" fill="#fff"/>
    <path d="M28.30221,27.60618c-1.38071,0-2.5-1.11929-2.5-2.5s1.11929-2.5,2.5-2.5,2.5,1.11929,2.5,2.5c-.00155,1.38007-1.11993,2.49845-2.5,2.5Zm0-3.75c-.69036,0-1.25,.55964-1.25,1.25s.55964,1.25,1.25,1.25,1.25-.55964,1.25-1.25c-.00072-.69006-.55994-1.24928-1.25-1.25Z" fill="#fff"/>
    <rect id="_Transparent_Rectangle_" x="22.05221" y="21.98118" width="20" height="20" fill="none"/>
</svg>