<?xml version="1.0" encoding="UTF-8"?>
<svg id="icon"
    xmlns="http://www.w3.org/2000/svg"
    xmlns:xlink="http://www.w3.org/1999/xlink" viewBox="0 0 64 64">
    <defs>
        <radialGradient id="radial-gradient" cx="-160.44268" cy="547.52801" fx="-160.44268" fy="547.52801" r="1" gradientTransform="translate(-33758.30674 9909.60721) rotate(90) scale(61.7143 -61.7143)" gradientUnits="userSpaceOnUse">
            <stop offset="0" stop-color="#000"/>
            <stop offset="1" stop-color="#000"/>
        </radialGradient>
        <linearGradient id="linear-gradient" x1="16.58716" y1="294.35056" x2="27.08716" y2="274.85056" gradientTransform="translate(0 297.72671) scale(1 -1)" gradientUnits="userSpaceOnUse">
            <stop offset="0" stop-color="#000"/>
            <stop offset="1" stop-color="#000" stop-opacity="0"/>
        </linearGradient>
    </defs>
    <path d="M32,8h0c13.25484,0,24,10.74516,24,24h0c0,13.25484-10.74516,24-24,24h0c-13.25484,0-24-10.74516-24-24h0c0-13.25484,10.74516-24,24-24Z" fill="#fff"/>
    <path d="M32,8.5h0c12.97869,0,23.5,10.52131,23.5,23.5h0c0,12.97869-10.52131,23.5-23.5,23.5h0c-12.97869,0-23.5-10.52131-23.5-23.5h0c0-12.97869,10.52131-23.5,23.5-23.5Z" fill="none" stroke="url(#radial-gradient)" stroke-opacity=".15"/>
    <path d="M32,8.5h0c12.97869,0,23.5,10.52131,23.5,23.5h0c0,12.97869-10.52131,23.5-23.5,23.5h0c-12.97869,0-23.5-10.52131-23.5-23.5h0c0-12.97869,10.52131-23.5,23.5-23.5Z" fill="none" stroke="url(#linear-gradient)" stroke-opacity=".5"/>
    <path d="M32,.5h0c17.39697,0,31.5,14.10303,31.5,31.5h0c0,17.39697-14.10303,31.5-31.5,31.5h0C14.60303,63.5,.5,49.39697,.5,32H.5C.5,14.60303,14.60303,.5,32,.5Z" fill="none" stroke="rgba(0,0,0,.1)"/>
    <rect id="_Transparent_Rectangle_" x="21.83385" y="22" width="20" height="20" fill="none"/>
    <path d="M37.625,32.0002h-5v-2.5h-1.25v2.5h-5c-.69003,.00079-1.24921,.55997-1.25,1.25v2.5h1.25v-2.5h5v2.5h1.25v-2.5h5v2.5h1.25v-2.5c-.00079-.69003-.55997-1.24921-1.25-1.25Z"/>
    <path d="M34.5,28.2502v-5h-5v5h5Zm-3.75-1.25v-2.5h2.5v2.5h-2.5Z"/>
    <path d="M38.25,37.0002c-.79198,.00239-1.49674,.50298-1.75981,1.25h-2.73037c-.33894-.97192-1.40159-1.48505-2.37351-1.14612-.53686,.18722-.9589,.60925-1.14612,1.14612h-2.73038c-.34518-.97631-1.41646-1.48795-2.39277-1.14277-.97631,.34518-1.48794,1.41646-1.14277,2.39277,.34518,.97631,1.41646,1.48795,2.39277,1.14277,.53396-.18878,.95398-.6088,1.14277-1.14277h2.73037c.33894,.97192,1.40159,1.48505,2.37351,1.14612,.53686-.18722,.9589-.60926,1.14612-1.14612h2.73037c.34701,.97372,1.41767,1.48177,2.39139,1.13476,.97372-.34701,1.48177-1.41767,1.13476-2.39139-.26609-.74667-.97367-1.24475-1.76634-1.24337Zm-12.5,2.5c-.34518,0-.625-.27982-.625-.625s.27982-.625,.625-.625,.625,.27982,.625,.625c-.00031,.34505-.27995,.62469-.625,.625Zm6.25,0c-.34518,0-.625-.27982-.625-.625s.27982-.625,.625-.625,.625,.27982,.625,.625c-.00031,.34505-.27995,.62469-.625,.625Zm6.25,0c-.34518,0-.625-.27982-.625-.625s.27982-.625,.625-.625,.625,.27982,.625,.625c-.00031,.34505-.27995,.62469-.625,.625Z"/>
    <rect id="_Transparent_Rectangle_-2" x="22" y="22.0002" width="20" height="20" fill="none"/>
</svg>