<?xml version="1.0" encoding="UTF-8"?>
<svg id="icon"
    xmlns="http://www.w3.org/2000/svg"
    xmlns:xlink="http://www.w3.org/1999/xlink" viewBox="0 0 64 64">
    <defs>
        <radialGradient id="radial-gradient" cx="-160.44268" cy="547.52801" fx="-160.44268" fy="547.52801" r="1" gradientTransform="translate(-33758.30674 9909.60721) rotate(90) scale(61.7143 -61.7143)" gradientUnits="userSpaceOnUse">
            <stop offset="0" stop-color="#000"/>
            <stop offset="1" stop-color="#000"/>
        </radialGradient>
        <linearGradient id="linear-gradient" x1="16.58716" y1="294.35056" x2="27.08716" y2="274.85056" gradientTransform="translate(0 297.72671) scale(1 -1)" gradientUnits="userSpaceOnUse">
            <stop offset="0" stop-color="#000"/>
            <stop offset="1" stop-color="#000" stop-opacity="0"/>
        </linearGradient>
    </defs>
    <path d="M32,8h0c13.25484,0,24,10.74516,24,24h0c0,13.25484-10.74516,24-24,24h0c-13.25484,0-24-10.74516-24-24h0c0-13.25484,10.74516-24,24-24Z" fill="#fff"/>
    <path d="M32,8.5h0c12.97869,0,23.5,10.52131,23.5,23.5h0c0,12.97869-10.52131,23.5-23.5,23.5h0c-12.97869,0-23.5-10.52131-23.5-23.5h0c0-12.97869,10.52131-23.5,23.5-23.5Z" fill="none" stroke="url(#radial-gradient)" stroke-opacity=".15"/>
    <path d="M32,8.5h0c12.97869,0,23.5,10.52131,23.5,23.5h0c0,12.97869-10.52131,23.5-23.5,23.5h0c-12.97869,0-23.5-10.52131-23.5-23.5h0c0-12.97869,10.52131-23.5,23.5-23.5Z" fill="none" stroke="url(#linear-gradient)" stroke-opacity=".5"/>
    <path d="M32,.5h0c17.39697,0,31.5,14.10303,31.5,31.5h0c0,17.39697-14.10303,31.5-31.5,31.5h0C14.60303,63.5,.5,49.39697,.5,32H.5C.5,14.60303,14.60303,.5,32,.5Z" fill="none" stroke="rgba(0,0,0,.1)"/>
    <path d="M35.3125,25.09375l-2.8125-1.6875c-.1875-.0625-.3125-.125-.5-.125s-.3125,.0625-.4375,.125l-2.8125,1.6875c-.3125,.1875-.5,.5-.5,.8125v3.5c0,.3125,.1875,.625,.4375,.8125l2.8125,1.6875c.125,.0625,.3125,.125,.4375,.125s.3125-.0625,.4375-.125l2.8125-1.6875c.25-.1875,.4375-.4375,.4375-.8125v-3.5c.125-.3125-.0625-.625-.3125-.8125Zm-.8125,4.125l-2.5,1.5-2.5-1.5v-3.125l2.5-1.5,2.5,1.5v3.125Z"/>
    <path d="M40.3125,33.84375l-2.8125-1.6875c-.1875-.0625-.3125-.125-.5-.125s-.3125,.0625-.4375,.125l-2.8125,1.6875c-.25,.1875-.4375,.4375-.4375,.8125v3.5c0,.3125,.1875,.625,.4375,.8125l2.8125,1.6875c.125,.0625,.3125,.125,.4375,.125s.3125-.0625,.4375-.125l2.8125-1.6875c.25-.1875,.4375-.4375,.4375-.8125v-3.5c.0625-.3125-.125-.625-.375-.8125Zm-.8125,4.125l-2.5,1.5-2.5-1.5v-3.125l2.5-1.5,2.5,1.5v3.125Z"/>
    <path d="M30.3125,33.84375l-2.8125-1.6875c-.1875-.0625-.3125-.125-.5-.125s-.3125,.0625-.4375,.125l-2.8125,1.6875c-.3125,.1875-.5,.5-.5,.8125v3.5c0,.3125,.1875,.625,.4375,.8125l2.8125,1.6875c.1875,.0625,.3125,.125,.5,.125s.3125-.0625,.4375-.125l2.8125-1.6875c.25-.1875,.4375-.4375,.4375-.8125v-3.5c.0625-.3125-.125-.625-.375-.8125Zm-.8125,4.125l-2.5,1.5-2.5-1.5v-3.125l2.5-1.5,2.5,1.5v3.125Z"/>
    <rect id="_Transparent_Rectangle_" x="22" y="22.03125" width="20" height="20" fill="none"/>
</svg>