<?xml version="1.0" encoding="UTF-8"?>
<svg id="icon"
    xmlns="http://www.w3.org/2000/svg"
    xmlns:xlink="http://www.w3.org/1999/xlink" viewBox="0 0 64 64">
    <defs>
        <radialGradient id="radial-gradient" cx="-160.44268" cy="547.52801" fx="-160.44268" fy="547.52801" r="1" gradientTransform="translate(-33758.30674 9909.60721) rotate(90) scale(61.7143 -61.7143)" gradientUnits="userSpaceOnUse">
            <stop offset="0" stop-color="#000"/>
            <stop offset="1" stop-color="#000"/>
        </radialGradient>
        <linearGradient id="linear-gradient" x1="16.58716" y1="294.35056" x2="27.08716" y2="274.85056" gradientTransform="translate(0 297.72671) scale(1 -1)" gradientUnits="userSpaceOnUse">
            <stop offset="0" stop-color="#000"/>
            <stop offset="1" stop-color="#000" stop-opacity="0"/>
        </linearGradient>
    </defs>
    <path d="M32,8h0c13.25484,0,24,10.74516,24,24h0c0,13.25484-10.74516,24-24,24h0c-13.25484,0-24-10.74516-24-24h0c0-13.25484,10.74516-24,24-24Z" fill="#fff"/>
    <path d="M32,8.5h0c12.97869,0,23.5,10.52131,23.5,23.5h0c0,12.97869-10.52131,23.5-23.5,23.5h0c-12.97869,0-23.5-10.52131-23.5-23.5h0c0-12.97869,10.52131-23.5,23.5-23.5Z" fill="none" stroke="url(#radial-gradient)" stroke-opacity=".15"/>
    <path d="M32,8.5h0c12.97869,0,23.5,10.52131,23.5,23.5h0c0,12.97869-10.52131,23.5-23.5,23.5h0c-12.97869,0-23.5-10.52131-23.5-23.5h0c0-12.97869,10.52131-23.5,23.5-23.5Z" fill="none" stroke="url(#linear-gradient)" stroke-opacity=".5"/>
    <path d="M32,.5h0c17.39697,0,31.5,14.10303,31.5,31.5h0c0,17.39697-14.10303,31.5-31.5,31.5h0C14.60303,63.5,.5,49.39697,.5,32H.5C.5,14.60303,14.60303,.5,32,.5Z" fill="none" stroke="rgba(0,0,0,.1)"/>
    <rect id="_Transparent_Rectangle_" x="21.83385" y="22.0002" width="20" height="20" fill="none"/>
    <path d="M29.58125,28.25h-3.2625c2.07083-3.18254,6.32952-4.08376,9.51206-2.01294,1.94961,1.26858,3.12559,3.43693,3.12544,5.76294h1.25c.00462-4.48731-3.62932-8.12874-8.11663-8.13336-2.41875-.00249-4.71286,1.07278-6.25837,2.93336v-2.3h-1.25v5h5v-1.25Z"/>
    <path d="M34.58125,35.75h3.2625c-2.07083,3.18254-6.32952,4.08376-9.51206,2.01294-1.94961-1.26858-3.12558-3.43693-3.12544-5.76294h-1.25c-.00462,4.48731,3.62932,8.12874,8.11663,8.13336,2.41875,.00249,4.71286-1.07278,6.25837-2.93336v2.3h1.25v-5h-5v1.25Z"/>
    <g id="_Transparent_Rectangle_-2">
        <rect x="22.08125" y="22" width="20" height="20" fill="none"/>
    </g>
</svg>