<?xml version="1.0" encoding="UTF-8"?>
<svg id="icon"
    xmlns="http://www.w3.org/2000/svg"
    xmlns:xlink="http://www.w3.org/1999/xlink" viewBox="0 0 64 64">
    <defs>
        <radialGradient id="radial-gradient" cx="-226.92877" cy="461.7151" fx="-226.92877" fy="461.7151" r="1" gradientTransform="translate(-28462.42366 14012.75003) rotate(90) scale(61.7143 -61.7143)" gradientUnits="userSpaceOnUse">
            <stop offset="0" stop-color="#fff"/>
            <stop offset="1" stop-color="#fff"/>
        </radialGradient>
        <linearGradient id="linear-gradient" x1="16.58716" y1="120.52447" x2="27.08716" y2="101.02447" gradientTransform="translate(0 123.90062) scale(1 -1)" gradientUnits="userSpaceOnUse">
            <stop offset="0" stop-color="#fff"/>
            <stop offset="1" stop-color="#fff" stop-opacity="0"/>
        </linearGradient>
    </defs>
    <path d="M32,8h0c13.25484,0,24,10.74516,24,24h0c0,13.25484-10.74516,24-24,24h0c-13.25484,0-24-10.74516-24-24h0c0-13.25484,10.74516-24,24-24Z"/>
    <path d="M32,8.5h0c12.97869,0,23.5,10.52131,23.5,23.5h0c0,12.97869-10.52131,23.5-23.5,23.5h0c-12.97869,0-23.5-10.52131-23.5-23.5h0c0-12.97869,10.52131-23.5,23.5-23.5Z" fill="none" stroke="url(#radial-gradient)" stroke-opacity=".15"/>
    <path d="M32,8.5h0c12.97869,0,23.5,10.52131,23.5,23.5h0c0,12.97869-10.52131,23.5-23.5,23.5h0c-12.97869,0-23.5-10.52131-23.5-23.5h0c0-12.97869,10.52131-23.5,23.5-23.5Z" fill="none" stroke="url(#linear-gradient)" stroke-opacity=".5"/>
    <path d="M32,.5h0c17.39697,0,31.5,14.10303,31.5,31.5h0c0,17.39697-14.10303,31.5-31.5,31.5h0C14.60303,63.5,.5,49.39697,.5,32H.5C.5,14.60303,14.60303,.5,32,.5Z" fill="none" stroke="rgba(255,255,255,.1)"/>
    <rect x="32.31975" y="39.4997" width="8.75" height="1.25" fill="#fff"/>
    <path d="M39.19475,38.2497h-5c-.68925,0-1.25-.56075-1.25-1.25v-3.125c0-.68925,.56075-1.25,1.25-1.25h5c.68925,0,1.25,.56075,1.25,1.25v3.125c0,.68925-.56075,1.25-1.25,1.25Zm-5-4.375v3.125h5v-3.125h-5Z" fill="#fff"/>
    <path d="M31.69475,36.3747h-3.125c-.68925,0-1.25-.56075-1.25-1.25v-2.5h1.25v2.5h3.125v1.25Z" fill="#fff"/>
    <rect x="23.56975" y="30.1247" width="8.75" height="1.25" fill="#fff"/>
    <path d="M30.44475,28.8747h-5c-.68925,0-1.25-.56075-1.25-1.25v-3.125c0-.68925,.56075-1.25,1.25-1.25h5c.68925,0,1.25,.56075,1.25,1.25v3.125c0,.68925-.56075,1.25-1.25,1.25Zm-5-4.375v3.125h5v-3.125h-5Z" fill="#fff"/>
</svg>