<?xml version="1.0" encoding="UTF-8"?>
<svg id="icon"
    xmlns="http://www.w3.org/2000/svg"
    xmlns:xlink="http://www.w3.org/1999/xlink" viewBox="0 0 64 64">
    <defs>
        <radialGradient id="radial-gradient" cx="-160.44268" cy="547.52801" fx="-160.44268" fy="547.52801" r="1" gradientTransform="translate(-33758.30674 9909.60721) rotate(90) scale(61.7143 -61.7143)" gradientUnits="userSpaceOnUse">
            <stop offset="0" stop-color="#000"/>
            <stop offset="1" stop-color="#000"/>
        </radialGradient>
        <linearGradient id="linear-gradient" x1="16.58716" y1="294.35056" x2="27.08716" y2="274.85056" gradientTransform="translate(0 297.72671) scale(1 -1)" gradientUnits="userSpaceOnUse">
            <stop offset="0" stop-color="#000"/>
            <stop offset="1" stop-color="#000" stop-opacity="0"/>
        </linearGradient>
    </defs>
    <path d="M32,8h0c13.25484,0,24,10.74516,24,24h0c0,13.25484-10.74516,24-24,24h0c-13.25484,0-24-10.74516-24-24h0c0-13.25484,10.74516-24,24-24Z" fill="#fff"/>
    <path d="M32,8.5h0c12.97869,0,23.5,10.52131,23.5,23.5h0c0,12.97869-10.52131,23.5-23.5,23.5h0c-12.97869,0-23.5-10.52131-23.5-23.5h0c0-12.97869,10.52131-23.5,23.5-23.5Z" fill="none" stroke="url(#radial-gradient)" stroke-opacity=".15"/>
    <path d="M32,8.5h0c12.97869,0,23.5,10.52131,23.5,23.5h0c0,12.97869-10.52131,23.5-23.5,23.5h0c-12.97869,0-23.5-10.52131-23.5-23.5h0c0-12.97869,10.52131-23.5,23.5-23.5Z" fill="none" stroke="url(#linear-gradient)" stroke-opacity=".5"/>
    <path d="M32,.5h0c17.39697,0,31.5,14.10303,31.5,31.5h0c0,17.39697-14.10303,31.5-31.5,31.5h0C14.60303,63.5,.5,49.39697,.5,32H.5C.5,14.60303,14.60303,.5,32,.5Z" fill="none" stroke="rgba(0,0,0,.1)"/>
    <rect x="31.996" y="39.5002" width="8.75" height="1.25"/>
    <path d="M38.871,38.2502h-5c-.68925,0-1.25-.56075-1.25-1.25v-3.125c0-.68925,.56075-1.25,1.25-1.25h5c.68925,0,1.25,.56075,1.25,1.25v3.125c0,.68925-.56075,1.25-1.25,1.25Zm-5-4.375v3.125h5v-3.125h-5Z"/>
    <path d="M31.371,36.3752h-3.125c-.68925,0-1.25-.56075-1.25-1.25v-2.5h1.25v2.5h3.125v1.25Z"/>
    <rect x="23.246" y="30.1252" width="8.75" height="1.25"/>
    <path d="M30.121,28.8752h-5c-.68925,0-1.25-.56075-1.25-1.25v-3.125c0-.68925,.56075-1.25,1.25-1.25h5c.68925,0,1.25,.56075,1.25,1.25v3.125c0,.68925-.56075,1.25-1.25,1.25Zm-5-4.375v3.125h5v-3.125h-5Z"/>
    <rect id="_Transparent_Rectangle_" x="21.996" y="22.0002" width="20" height="20" fill="none"/>
</svg>