<?xml version="1.0" encoding="UTF-8"?>
<svg id="icon"
  xmlns="http://www.w3.org/2000/svg" viewBox="0 0 102.727 102.727">
  <path d="M0,0H102.727V102.727H0V0Z" fill="none"/>
  <path d="M89.88612,32.10219h-19.26131V12.84088c-.00356-3.54444-2.876-6.41688-6.42044-6.42044H12.84087c-3.54444,.00356-6.41688,2.876-6.42044,6.42044v51.3635c.00356,3.54444,2.876,6.41688,6.42044,6.42044h19.26131v19.26131c0,3.5459,2.87454,6.42044,6.42044,6.42044h51.3635c3.5459,0,6.42044-2.87453,6.42044-6.42044V38.52263c0-3.5459-2.87453-6.42044-6.42044-6.42044Zm-51.3635,32.10219v-25.68175h25.68175v25.68175h-25.68175ZM12.83768,12.84088h51.3667v19.26131h-25.68175c-3.54444,.00356-6.41688,2.876-6.42044,6.42044v25.68175H12.84087l-.0032-51.3635Z"/>
  <path d="M0,0H102.727V102.727H0V0Z" fill="none"/>
</svg>