<?xml version="1.0" encoding="UTF-8"?><svg id="Layer_1" xmlns="http://www.w3.org/2000/svg" xmlns:xlink="http://www.w3.org/1999/xlink" viewBox="0 0 84 84"><defs><radialGradient id="radial-gradient" cx="-1262.85896" cy="343.08683" fx="-1262.85896" fy="343.08683" r=".80933" gradientTransform="translate(122656.03479 214279.76718) rotate(45) scale(188.717 -188.717)" gradientUnits="userSpaceOnUse"><stop offset="0" stop-color="#000"/><stop offset="1" stop-color="#000"/></radialGradient><linearGradient id="linear-gradient" x1="-679.75391" y1="-156.10025" x2="-627.25391" y2="-171.85024" gradientTransform="translate(564 -161.42635) scale(1 -1)" gradientUnits="userSpaceOnUse"><stop offset="0" stop-color="#000"/><stop offset="1" stop-color="#000" stop-opacity="0"/></linearGradient></defs><path d="m0,9.712C0,4.34824,4.34824,0,9.712,0h64.57579c5.36368,0,9.71221,4.34824,9.71221,9.712v64.57579c0,5.36368-4.34854,9.71221-9.71221,9.71221H9.712c-5.36376,0-9.712-4.34854-9.712-9.71221V9.712Z" fill="rgba(255,255,255,.64)"/><path d="m0,9.712C0,4.34824,4.34824,0,9.712,0h64.57579c5.36368,0,9.71221,4.34824,9.71221,9.712v64.57579c0,5.36368-4.34854,9.71221-9.71221,9.71221H9.712c-5.36376,0-9.712-4.34854-9.712-9.71221V9.712Z" fill="rgba(255,255,255,.5)"/><path d="m9.712.607h64.57579c5.02862,0,9.10521,4.07646,9.10521,9.105v64.57579c0,5.02862-4.0766,9.10521-9.10521,9.10521H9.712c-5.02853,0-9.105-4.0766-9.105-9.10521V9.712C.607,4.68346,4.68346.607,9.712.607Z" fill="none" stroke="url(#radial-gradient)" stroke-opacity=".15" stroke-width="1.214"/><path d="m9.712.607h64.57579c5.02862,0,9.10521,4.07646,9.10521,9.105v64.57579c0,5.02862-4.0766,9.10521-9.10521,9.10521H9.712c-5.02853,0-9.105-4.0766-9.105-9.10521V9.712C.607,4.68346,4.68346.607,9.712.607Z" fill="none" stroke="url(#linear-gradient)" stroke-opacity=".5" stroke-width="1.214"/><path id="scale--02" d="m34.1875,62h-11.71875c-.25911,0-.46875-.20963-.46875-.46875v-11.71875c0-.20052.1263-.37239.30469-.4388l13.00781-5.20313,6.23438-21.82031c.05208-.20182.23568-.35026.45313-.35026h19.53125c.25911,0,.46875.20964.46875.46875v19.53125c0,.21745-.14844.40104-.35026.45312l-21.82162,6.23568-5.20313,13.00651c-.0651.17839-.23698.30469-.4375.30469Zm-11.25-.9375h10.78125v-10.78125h-10.78125v10.78125Zm11.71875-10.89713v8.93099l4.03385-10.08333-4.03385,1.15234Zm-9.75391-.82162h8.93099l1.15234-4.03385-10.08333,4.03385Zm11.1849-4.47396l-1.21745,4.25911,4.25911-1.21745,2.02865-5.07162-5.07031,2.02995Zm6.23047-2.40104l-2.04688,5.11849,17.91406-5.11849h-15.86719Zm-.78646-16.65365l-5.11849,17.91536,5.11849-2.04818v-15.86719Zm.9375,15.71615h18.59375v-18.59375h-18.59375v18.59375Z"/><rect id="_Transparent_Rectangle" x="26" y="26" width="32" height="32" fill="none"/></svg>