<?xml version="1.0" encoding="UTF-8"?>
<svg id="icon"
    xmlns="http://www.w3.org/2000/svg"
    xmlns:xlink="http://www.w3.org/1999/xlink" viewBox="0 0 103.7866 103.7866">
    <defs>
        <linearGradient id="linear-gradient" x1="-607.32386" y1="1365.02395" x2="-542.45716" y2="1384.48391" gradientTransform="translate(564 -1341.69574)" gradientUnits="userSpaceOnUse">
            <stop offset="0" stop-color="#fff"/>
            <stop offset="1" stop-color="#fff" stop-opacity="0"/>
        </linearGradient>
        <radialGradient id="radial-gradient" cx="-2428.97963" cy="617.83536" fx="-2428.97963" fy="617.83536" r=".99999" gradientTransform="translate(406567.70442 241679.51639) rotate(45) scale(188.71298)" gradientUnits="userSpaceOnUse">
            <stop offset="0" stop-color="#fff"/>
            <stop offset="1" stop-color="#fff"/>
        </radialGradient>
    </defs>
    <path d="M0,12C0,5.3726,5.3726,0,12,0H91.7868c6.6278,0,11.9998,5.3726,11.9998,12V91.7868c0,6.6278-5.372,11.9998-11.9998,11.9998H12c-6.6274,0-12-5.372-12-11.9998V12Z"/>
    <path d="M0,12C0,5.3726,5.3726,0,12,0H91.7868c6.6278,0,11.9998,5.3726,11.9998,12V91.7868c0,6.6278-5.372,11.9998-11.9998,11.9998H12c-6.6274,0-12-5.372-12-11.9998V12Z"/>
    <path d="M0,12C0,5.3726,5.3726,0,12,0H91.7868c6.6278,0,11.9998,5.3726,11.9998,12V91.7868c0,6.6278-5.372,11.9998-11.9998,11.9998H12c-6.6274,0-12-5.372-12-11.9998V12Z"/>
    <path d="M12,.5H91.7868c6.3508,0,11.4998,5.1487,11.4998,11.5V91.7868c0,6.3508-5.149,11.4998-11.4998,11.4998H12c-6.3513,0-11.5-5.149-11.5-11.4998V12C.5,5.6487,5.6487,.5,12,.5Z" fill="none" stroke="url(#linear-gradient)" stroke-opacity=".5"/>
    <path id="scale--02" d="M44.0808,71.8933h-11.71875c-.25911,0-.46875-.20963-.46875-.46875v-11.71875c0-.20052,.1263-.37239,.30469-.4388l13.00781-5.20313,6.23438-21.82031c.05208-.20182,.23568-.35026,.45313-.35026h19.53125c.25911,0,.46875,.20964,.46875,.46875v19.53125c0,.21745-.14844,.40104-.35026,.45312l-21.82162,6.23568-5.20313,13.00651c-.0651,.17839-.23698,.30469-.4375,.30469Zm-11.25-.9375h10.78125v-10.78125h-10.78125v10.78125Zm11.71875-10.89713v8.93099l4.03385-10.08333-4.03385,1.15234Zm-9.75391-.82162h8.93099l1.15234-4.03385-10.08333,4.03385Zm11.1849-4.47396l-1.21745,4.25911,4.25911-1.21745,2.02865-5.07162-5.07031,2.02995h0Zm6.23047-2.40103l-2.04688,5.11849,17.91406-5.11849h-15.86718Zm-.78646-16.65365l-5.11849,17.91536,5.11849-2.04818v-15.86719h0Zm.9375,15.71616h18.59375v-18.59375h-18.59375v18.59375Z" fill="#fff"/>
    <rect id="_Transparent_Rectangle" x="35.8933" y="35.8933" width="32" height="32" fill="none"/>
    <path d="M12,.5H91.7868c6.3508,0,11.4998,5.1487,11.4998,11.5V91.7868c0,6.3508-5.149,11.4998-11.4998,11.4998H12c-6.3513,0-11.5-5.149-11.5-11.4998V12C.5,5.6487,5.6487,.5,12,.5Z" fill="none" stroke="url(#radial-gradient)" stroke-opacity=".15"/>
</svg>